<?xml version="1.0" standalone="no"?>
<!DOCTYPE svg PUBLIC "-//W3C//DTD SVG 20010904//EN"
 "http://www.w3.org/TR/2001/REC-SVG-20010904/DTD/svg10.dtd">
<svg version="1.0" xmlns="http://www.w3.org/2000/svg"
 width="1022.000000pt" height="1022.000000pt" viewBox="0 0 1022.000000 1022.000000"
 preserveAspectRatio="xMidYMid meet">
<metadata>
Created by potrace 1.11, written by Peter Selinger 2001-2013
</metadata>
<g transform="translate(0.000000,1022.000000) scale(0.100000,-0.100000)"
fill="#000000" stroke="none">
<path d="M2390 9333 c-192 -39 -310 -171 -314 -353 -3 -117 45 -229 145 -335
51 -54 79 -91 79 -104 0 -6 3 -11 8 -11 4 0 15 -13 24 -30 16 -29 16 -29 -16
-48 -28 -16 -52 -19 -162 -19 -117 0 -260 -10 -274 -18 -3 -2 -30 -6 -60 -10
-29 -3 -56 -8 -60 -10 -3 -2 -17 -6 -31 -9 -13 -3 -49 -12 -79 -21 -30 -9 -63
-18 -72 -20 -11 -2 -35 12 -60 35 -88 80 -114 100 -173 130 -33 16 -73 30 -90
31 -93 5 -200 -38 -273 -109 -83 -81 -87 -92 -86 -217 1 -60 7 -128 13 -150
30 -99 34 -87 -59 -185 -47 -49 -89 -95 -95 -102 -96 -123 -174 -249 -233
-375 -24 -50 -45 -98 -46 -105 -2 -7 -8 -26 -15 -43 -6 -16 -16 -41 -21 -55
-11 -28 -50 -191 -55 -230 -2 -14 -4 -25 -5 -25 -8 0 -23 -205 -23 -300 2
-231 34 -408 112 -615 54 -147 161 -347 221 -417 8 -10 26 -34 40 -53 60 -86
215 -239 335 -329 107 -80 189 -131 306 -187 47 -23 86 -48 86 -56 2 -23 12
-141 18 -198 3 -30 8 -75 10 -100 24 -290 26 -319 39 -700 6 -138 15 -337 21
-400 2 -30 7 -91 10 -135 3 -44 8 -98 11 -120 2 -22 7 -58 9 -80 9 -70 17
-129 22 -155 2 -14 6 -34 8 -45 3 -11 6 -34 9 -52 3 -17 10 -51 17 -75 6 -24
13 -56 16 -72 6 -35 78 -259 97 -301 49 -107 68 -151 68 -155 0 -3 9 -17 19
-32 10 -14 19 -31 19 -37 0 -6 4 -11 9 -11 5 0 12 -11 15 -25 4 -14 11 -25 16
-25 6 0 10 -5 10 -11 0 -6 20 -38 45 -70 25 -33 45 -61 45 -63 0 -12 187 -207
240 -251 14 -11 41 -31 60 -45 19 -13 37 -27 40 -30 35 -42 352 -212 481 -257
78 -28 88 -37 70 -71 -16 -29 -69 -174 -81 -221 -15 -58 -15 -168 0 -206 33
-86 142 -124 232 -81 49 24 78 70 125 206 47 134 92 230 108 230 6 0 60 -9
121 -20 264 -49 430 -63 759 -63 230 0 359 6 545 27 135 16 137 16 255 38 33
6 70 12 82 13 12 2 34 6 50 9 51 11 78 17 103 22 44 9 183 44 252 63 36 11 69
17 72 13 3 -3 6 0 6 6 0 7 8 12 19 12 10 0 36 6 58 14 37 13 40 13 53 -8 30
-45 69 -135 104 -239 20 -60 47 -124 59 -142 29 -45 101 -83 147 -78 102 10
146 53 158 156 13 106 -16 214 -113 422 -13 28 -13 30 18 43 180 81 330 169
407 238 8 8 35 31 58 51 85 74 179 172 257 268 17 21 42 52 58 70 15 18 27 37
27 43 0 6 4 12 8 14 32 13 189 301 232 425 21 63 26 81 36 143 9 54 15 56 41
14 35 -56 92 -171 97 -191 1 -10 6 -25 9 -33 15 -41 30 -96 43 -160 3 -14 7
-36 10 -50 3 -14 6 -41 8 -60 2 -19 7 -60 11 -90 10 -70 10 -151 0 -320 -4
-74 -8 -165 -9 -202 -1 -38 -3 -68 -6 -68 -3 0 -6 -96 -7 -214 -2 -297 13
-358 112 -460 62 -63 148 -122 225 -155 30 -13 63 -27 73 -32 10 -6 22 -7 27
-4 6 4 10 2 10 -3 0 -5 6 -9 13 -10 6 -1 30 -4 52 -8 129 -21 275 -10 360 26
17 7 33 14 37 14 3 1 26 19 51 40 70 61 107 153 122 304 4 39 8 80 9 89 3 15
14 18 77 20 41 0 79 1 86 2 8 1 9 10 2 33 -5 18 -9 38 -9 43 0 8 119 11 376
10 l376 0 -6 -42 c-4 -30 -2 -43 7 -44 20 -2 312 2 314 5 1 1 -3 21 -9 44 -6
24 -8 46 -4 49 4 4 28 8 54 9 26 1 47 3 47 4 0 1 78 9 135 13 33 3 37 10 34
60 -1 23 -5 112 -9 197 -3 85 -8 182 -10 215 -3 33 -7 94 -10 135 -10 152 -3
528 10 550 3 6 1 10 -5 10 -6 0 -8 5 -4 12 4 6 8 28 9 47 6 103 18 247 21 253
9 14 -8 17 -165 33 -56 6 -193 15 -270 18 -43 2 -45 4 -75 59 -55 101 -155
180 -281 219 -51 16 -189 16 -240 0 -86 -27 -148 -63 -203 -119 -56 -57 -92
-110 -92 -138 0 -8 -6 -14 -12 -15 -7 0 -20 -2 -28 -4 -8 -1 -65 -6 -125 -10
-291 -19 -318 -24 -310 -48 5 -12 9 -64 21 -277 10 -153 5 -780 -6 -780 -3 0
-6 -53 -6 -118 -1 -64 -3 -156 -5 -204 -3 -56 -1 -89 6 -90 10 -1 38 -4 93 -9
l33 -3 -5 -106 c-5 -99 -8 -122 -22 -195 -9 -44 -35 -96 -45 -89 -5 3 -9 1 -9
-5 0 -29 -177 -53 -265 -36 -71 14 -172 51 -197 73 -10 8 -18 12 -18 9 0 -7
-21 9 -82 62 -51 45 -68 79 -73 147 -3 30 -7 59 -10 64 -3 5 -1 11 4 15 6 3 7
16 3 28 -6 19 -8 70 -3 87 1 3 4 73 7 155 3 83 7 168 9 190 2 22 7 137 9 255
4 162 2 236 -9 300 -8 47 -18 105 -21 130 -3 25 -10 53 -15 63 -6 9 -8 17 -5
17 3 0 0 15 -5 33 -6 17 -12 39 -14 47 -2 8 -4 16 -5 18 -2 1 -3 6 -4 11 0 5
-4 13 -8 17 -5 4 -8 14 -8 23 0 9 -22 61 -50 116 -49 99 -136 224 -193 278
l-30 28 -3 227 c-2 125 -5 250 -7 277 -6 60 -18 179 -22 220 -2 17 -6 55 -9
85 -4 30 -10 93 -16 140 -21 185 -25 263 -25 470 1 190 6 288 21 383 2 15 6
39 8 55 5 29 23 156 31 212 2 19 7 51 9 70 3 19 8 58 12 85 3 28 7 52 9 55 2
3 6 37 9 75 4 39 9 77 11 85 2 8 7 40 10 70 2 30 7 71 9 90 3 19 8 77 11 129
5 86 9 99 45 162 22 37 40 72 40 78 0 6 5 11 10 11 6 0 10 9 10 20 0 11 4 20
9 20 5 0 11 10 14 23 3 12 19 59 36 105 17 45 28 82 25 82 -4 0 -2 6 4 13 5 6
13 34 16 61 4 27 9 52 11 56 14 23 22 290 10 350 -3 13 -7 42 -10 65 -3 22 -8
48 -11 57 -3 9 -7 27 -10 40 -6 28 -9 39 -17 58 -3 8 -15 42 -27 75 -12 33
-29 68 -38 79 -9 10 -15 19 -12 20 8 3 -85 157 -121 201 -18 22 -80 87 -137
145 -70 71 -111 122 -127 157 l-23 51 39 28 c58 40 57 55 -19 148 -92 114
-247 256 -280 256 -7 0 -12 3 -12 8 0 9 -47 30 -76 35 -12 1 -40 15 -63 30
l-42 28 33 27 c18 15 35 30 36 35 2 4 10 7 18 7 8 0 17 7 20 15 4 8 10 15 15
15 11 0 62 35 99 68 13 12 28 22 32 22 5 0 8 7 8 15 0 8 4 15 9 15 10 0 70
111 77 142 3 13 8 34 11 48 14 65 9 127 -14 190 -3 8 -7 21 -9 28 -5 25 -65
95 -117 139 -24 20 -133 72 -163 78 -86 17 -128 21 -199 18 -43 -2 -83 -7 -89
-11 -6 -5 -18 -8 -26 -7 -20 2 -184 -56 -188 -67 -2 -4 -9 -8 -15 -8 -20 0
-119 -70 -162 -114 -58 -58 -97 -111 -135 -184 -28 -54 -37 -62 -54 -57 -12 3
-28 8 -36 10 -8 2 -17 4 -20 6 -3 1 -9 3 -15 4 -5 2 -12 4 -15 5 -28 10 -234
57 -280 63 -25 4 -56 9 -70 12 -79 16 -378 23 -550 11 -130 -9 -195 -14 -195
-15 0 -1 -31 -4 -70 -6 -38 -3 -90 -7 -115 -9 -25 -3 -70 -8 -100 -11 -74 -8
-128 -14 -170 -21 -19 -2 -62 -7 -95 -9 -33 -2 -60 -5 -60 -6 0 -1 -13 -3 -30
-5 -55 -5 -120 -13 -120 -14 0 -1 -13 -3 -30 -5 -33 -4 -111 -16 -135 -21 -8
-2 -31 -5 -50 -8 -19 -2 -55 -9 -79 -16 -23 -6 -46 -9 -49 -6 -3 3 -11 1 -19
-5 -7 -6 -13 -9 -13 -6 0 3 -15 1 -32 -4 -47 -14 -98 -18 -98 -8 0 17 -2 24
-25 84 -27 73 -76 165 -87 165 -4 0 -8 6 -8 13 0 18 -132 142 -194 180 -86 55
-133 76 -219 98 -99 26 -173 30 -257 12z m-534 -1081 c1 -7 0 -8 -3 -2 -2 5
-9 8 -14 4 -5 -3 -9 0 -9 6 0 15 23 7 26 -8z m27 -7 c-3 -9 -8 -14 -10 -11 -3
3 -2 9 2 15 9 16 15 13 8 -4z m-63 -33 c0 -8 -1 -13 -3 -11 -1 2 -9 12 -16 22
-12 15 -12 17 3 11 9 -3 16 -13 16 -22z m-150 8 c0 -5 -5 -10 -11 -10 -5 0 -7
5 -4 10 3 6 8 10 11 10 2 0 4 -4 4 -10z m225 0 c-3 -5 -12 -10 -18 -10 -7 0
-6 4 3 10 19 12 23 12 15 0z m-170 -10 c-3 -5 -12 -10 -18 -10 -7 0 -6 4 3 10
19 12 23 12 15 0z m60 1 c3 -5 0 -13 -6 -17 -7 -4 -9 -3 -5 4 3 5 0 13 -6 15
-9 4 -10 6 -1 6 6 1 14 -3 18 -8z m-189 -29 c-17 -16 -18 -16 -5 5 7 12 15 20
18 17 3 -2 -3 -12 -13 -22z m164 6 c10 -21 10 -21 -3 -6 -8 10 -18 14 -22 10
-5 -4 -5 -1 -1 6 10 17 14 15 26 -10z m91 2 c6 0 7 5 3 12 -5 7 -3 8 5 3 9 -5
9 -11 3 -17 -12 -12 -32 -2 -31 15 0 9 2 9 6 0 2 -7 9 -13 14 -13z m-282 -34
c-3 -3 -11 5 -18 17 -13 21 -12 21 5 5 10 -10 16 -20 13 -22z m121 -1 c0 -5
-5 -3 -10 5 -5 8 -10 20 -10 25 0 6 5 3 10 -5 5 -8 10 -19 10 -25z m20 25 c0
-5 -2 -10 -4 -10 -3 0 -8 5 -11 10 -3 6 -1 10 4 10 6 0 11 -4 11 -10z m109 1
c10 -7 7 -9 -12 -8 -14 1 -23 5 -20 10 6 9 15 9 32 -2z m106 -1 c3 -6 -1 -7
-9 -4 -18 7 -21 14 -7 14 6 0 13 -4 16 -10z m-269 -16 c18 -14 18 -14 -6 -3
-31 14 -36 19 -24 19 6 0 19 -7 30 -16z m229 6 c3 -5 1 -10 -4 -10 -6 0 -11 5
-11 10 0 6 2 10 4 10 3 0 8 -4 11 -10z m-399 -31 c1 -19 -1 -26 -6 -19 -4 7
-6 20 -5 29 7 32 10 29 11 -10z m54 27 c0 -2 -9 -6 -20 -9 -11 -3 -18 -1 -14
4 5 9 34 13 34 5z m47 -38 c-3 -7 -5 -2 -5 12 0 14 2 19 5 13 2 -7 2 -19 0
-25z m143 -12 c0 -6 -7 -1 -15 10 -8 10 -15 23 -15 28 0 6 7 1 15 -10 8 -10
15 -23 15 -28z m42 37 c-6 -2 -10 -8 -8 -12 3 -4 -1 -8 -9 -8 -8 0 -15 4 -15
8 0 8 19 17 35 17 6 0 4 -2 -3 -5z m47 4 c-2 -1 -13 -9 -24 -17 -19 -14 -19
-14 -6 3 7 9 18 17 24 17 6 0 8 -1 6 -3z m-277 -31 c7 4 8 2 4 -5 -10 -15 -26
-4 -25 17 1 15 2 15 6 -1 2 -9 9 -14 15 -11z m123 6 c-3 -3 -11 0 -18 7 -9 10
-8 11 6 5 10 -3 15 -9 12 -12z m-242 -17 c4 -8 3 -16 -1 -19 -4 -3 -9 4 -9 15
-2 23 3 25 10 4z m57 -29 c0 -12 -5 -7 -19 24 -11 24 -11 24 3 6 9 -11 16 -24
16 -30z m87 13 c0 -21 -3 -26 -9 -16 -4 9 -5 22 -2 31 9 23 11 20 11 -15z m55
14 c-6 -9 -17 -18 -26 -19 -9 -1 -14 2 -10 7 3 5 9 7 14 4 4 -3 10 2 14 10 3
8 8 15 11 15 3 0 2 -8 -3 -17z m68 7 c0 -5 -5 -10 -11 -10 -5 0 -7 5 -4 10 3
6 8 10 11 10 2 0 4 -4 4 -10z m162 1 c-8 -4 -13 -12 -12 -17 1 -5 -4 -10 -12
-12 -9 -2 -8 0 2 7 8 6 11 11 7 11 -5 0 -5 5 -2 10 3 6 12 10 18 10 8 0 8 -3
-1 -9z m-192 -5 c0 -2 -7 -7 -16 -10 -8 -3 -12 -2 -9 4 6 10 25 14 25 6z m52
-38 c-6 -6 -12 -6 -17 3 -6 8 -4 10 5 4 9 -5 10 -1 6 16 -6 21 -6 22 5 6 7
-13 8 -22 1 -29z m79 15 c-12 -20 -14 -14 -5 12 4 9 9 14 11 11 3 -2 0 -13 -6
-23z m-24 -8 c0 -20 -4 -19 -17 5 -8 15 -8 18 3 14 8 -3 14 -11 14 -19z m-323
-11 c3 -8 2 -12 -4 -9 -6 3 -10 10 -10 16 0 14 7 11 14 -7z m93 10 c-3 -3 -12
-4 -19 -1 -8 3 -5 6 6 6 11 1 17 -2 13 -5z m264 -17 c-10 -9 -11 -8 -5 6 3 10
9 15 12 12 3 -3 0 -11 -7 -18z m-476 3 c-3 -5 7 -8 25 -5 17 2 28 0 25 -5 -3
-5 -13 -6 -22 -3 -10 4 -14 2 -9 -5 3 -6 1 -14 -5 -18 -7 -4 -9 -3 -6 3 4 6 0
14 -9 17 -13 5 -12 26 2 26 3 0 3 -4 -1 -10z m86 -13 c-10 -9 -11 -8 -5 6 3
10 9 15 12 12 3 -3 0 -11 -7 -18z m299 -6 c3 -2 -3 -1 -14 3 -14 5 -17 2 -12
-9 3 -9 2 -13 -3 -10 -6 3 -9 14 -8 25 1 18 8 17 37 -9z m-229 2 c13 -16 12
-17 -3 -4 -10 7 -18 15 -18 17 0 8 8 3 21 -13z m72 -14 c-8 -8 -13 -7 -18 2
-6 8 -4 10 5 4 10 -6 12 -4 6 11 -6 15 -5 17 5 7 9 -10 10 -16 2 -24z m87 21
c0 -5 -5 -10 -11 -10 -5 0 -7 -5 -3 -12 4 -7 3 -8 -4 -4 -6 4 -9 13 -5 21 6
17 23 20 23 5z m-375 -20 c-3 -5 -12 -10 -18 -10 -7 0 -6 4 3 10 19 12 23 12
15 0z m151 -5 c-11 -8 -25 -15 -30 -15 -6 1 0 7 14 15 32 19 40 18 16 0z m204
-29 c0 -6 -7 -1 -15 10 -8 10 -15 23 -15 28 0 6 7 1 15 -10 8 -10 15 -23 15
-28z m-262 14 c-7 -10 -14 -17 -17 -15 -4 4 18 35 25 35 2 0 -1 -9 -8 -20z
m138 -2 c-9 -5 -23 -5 -32 0 -12 6 -7 9 16 9 23 0 28 -3 16 -9z m25 -11 c-10
-9 -11 -8 -5 6 3 10 9 15 12 12 3 -3 0 -11 -7 -18z m59 13 c0 -5 -2 -10 -4
-10 -3 0 -8 5 -11 10 -3 6 -1 10 4 10 6 0 11 -4 11 -10z m90 2 c0 -4 -10 -9
-22 -9 -18 -2 -20 0 -8 7 18 12 30 13 30 2z m-420 -6 c0 -2 -9 -6 -20 -9 -11
-3 -18 -1 -14 4 5 9 34 13 34 5z m43 -13 c-7 -2 -19 -2 -25 0 -7 3 -2 5 12 5
14 0 19 -2 13 -5z m37 -3 c0 -5 -2 -10 -4 -10 -3 0 -8 5 -11 10 -3 6 -1 10 4
10 6 0 11 -4 11 -10z m39 -2 c-3 -27 1 -39 13 -32 7 5 8 3 3 -6 -6 -10 -11 -9
-21 4 -7 10 -10 24 -7 32 6 17 14 18 12 2z m94 -19 c-4 -16 -8 -17 -14 -7 -5
7 -4 14 1 16 6 2 7 9 4 14 -4 6 -2 8 4 5 5 -4 8 -16 5 -28z m97 11 c7 -14 7
-20 0 -20 -5 0 -10 7 -10 16 0 9 -5 12 -12 8 -7 -4 -8 -3 -4 4 10 16 14 15 26
-8z m44 4 c3 -8 2 -12 -4 -9 -6 3 -10 10 -10 16 0 14 7 11 14 -7z m-197 -16
c-3 -8 -6 -5 -6 6 -1 11 2 17 5 13 3 -3 4 -12 1 -19z m90 0 c-3 -8 -6 -5 -6 6
-1 11 2 17 5 13 3 -3 4 -12 1 -19z m-237 2 c-8 -5 -19 -10 -25 -10 -5 0 -3 5
5 10 8 5 20 10 25 10 6 0 3 -5 -5 -10z m60 -5 c19 -22 8 -25 -12 -3 -10 10
-14 18 -9 18 5 0 14 -7 21 -15z m-101 -31 c14 -12 -19 -1 -35 12 -18 14 -18
14 6 3 14 -6 27 -13 29 -15z m46 16 c-3 -5 2 -10 11 -10 10 0 15 -3 11 -6 -10
-10 -39 5 -32 16 3 5 8 10 11 10 3 0 2 -4 -1 -10z m225 -15 c14 -19 14 -19 -2
-6 -10 7 -18 18 -18 24 0 6 1 8 3 6 1 -2 9 -13 17 -24z m45 15 c-3 -5 -14 -10
-23 -9 -14 0 -13 2 3 9 27 11 27 11 20 0z m-223 -42 c-6 -6 -12 -6 -17 3 -6 8
-4 10 5 4 9 -5 10 -1 6 16 -6 21 -6 22 5 6 7 -13 8 -22 1 -29z m95 15 c1 -22
-1 -24 -8 -10 -6 9 -7 22 -4 27 9 14 10 13 12 -17z m-269 -8 c-3 -3 -9 2 -12
12 -6 14 -5 15 5 6 7 -7 10 -15 7 -18z m28 16 c-4 -5 -1 -11 6 -13 8 -3 6 -6
-4 -10 -11 -5 -15 -2 -13 10 5 23 4 22 11 22 3 0 3 -4 0 -9z m213 -18 c2 -2
-3 -3 -11 -3 -9 0 -19 7 -22 16 -6 15 -4 15 11 3 10 -7 20 -15 22 -16z m75 15
c-3 -5 -10 -6 -15 -3 -5 4 -9 1 -9 -6 0 -7 -3 -10 -6 -6 -9 9 3 24 20 24 8 0
13 -4 10 -9z m-353 -21 c-10 -9 -11 -8 -5 6 3 10 9 15 12 12 3 -3 0 -11 -7
-18z m149 13 c0 -5 -5 -10 -11 -10 -5 0 -7 5 -4 10 3 6 8 10 11 10 2 0 4 -4 4
-10z m-120 -31 c0 -5 -4 -7 -10 -4 -5 3 -10 1 -10 -6 0 -7 -3 -10 -6 -6 -8 7
4 27 17 27 5 0 9 -5 9 -11z m60 1 c0 -5 -4 -10 -10 -10 -5 0 -10 5 -10 10 0 6
5 10 10 10 6 0 10 -4 10 -10z m54 -5 c11 -8 16 -15 10 -15 -5 0 -18 7 -28 15
-11 8 -16 15 -10 15 5 0 18 -7 28 -15z m56 5 c8 -5 11 -10 5 -10 -5 0 -17 5
-25 10 -8 5 -10 10 -5 10 6 0 17 -5 25 -10z m54 2 c3 -5 -1 -9 -9 -9 -8 0 -15
4 -15 9 0 4 4 8 9 8 6 0 12 -4 15 -8z m42 -3 c3 -6 2 -15 -4 -21 -6 -6 -12 -6
-17 3 -5 8 -4 10 3 5 7 -4 12 -3 12 3 0 5 -6 12 -12 14 -10 4 -10 6 -1 6 6 1
15 -4 19 -10z m-326 -14 c0 -2 -10 -9 -22 -15 -22 -11 -22 -10 -4 4 21 17 26
19 26 11z m74 -6 c-4 -8 1 -9 17 -5 20 6 21 5 6 -4 -19 -12 -41 -4 -32 11 4 5
8 9 11 9 3 0 2 -5 -2 -11z m81 1 c3 -6 -1 -7 -9 -4 -18 7 -21 14 -7 14 6 0 13
-4 16 -10z m-138 -27 c1 -22 -1 -24 -8 -10 -6 9 -7 22 -4 27 9 14 10 13 12
-17z m243 17 c0 -5 -2 -10 -4 -10 -3 0 -8 5 -11 10 -3 6 -1 10 4 10 6 0 11 -4
11 -10z m-204 -12 c4 -7 3 -8 -4 -4 -7 4 -12 2 -12 -5 0 -7 -3 -10 -6 -6 -6 5
3 27 11 27 2 0 7 -5 11 -12z m74 2 c-8 -5 -19 -10 -25 -10 -5 0 -3 5 5 10 8 5
20 10 25 10 6 0 3 -5 -5 -10z m70 6 c0 -3 -4 -8 -10 -11 -5 -3 -10 -1 -10 4 0
6 5 11 10 11 6 0 10 -2 10 -4z m105 -6 c4 -6 3 -10 -2 -9 -21 4 -34 -2 -27
-13 5 -7 3 -8 -6 -3 -10 6 -9 11 5 22 22 16 22 16 30 3z m-87 -14 c-7 -8 -15
-12 -17 -11 -5 6 10 25 20 25 5 0 4 -6 -3 -14z m-258 -6 c0 -5 -2 -10 -4 -10
-3 0 -8 5 -11 10 -3 6 -1 10 4 10 6 0 11 -4 11 -10z m134 -13 c-3 -8 -12 -14
-21 -14 -13 0 -13 2 3 14 10 7 19 13 21 13 1 0 0 -6 -3 -13z m87 -10 c-10 -9
-11 -8 -5 6 3 10 9 15 12 12 3 -3 0 -11 -7 -18z m-201 3 c0 -5 -5 -10 -11 -10
-5 0 -7 5 -4 10 3 6 8 10 11 10 2 0 4 -4 4 -10z m60 0 c0 -5 -5 -10 -11 -10
-5 0 -7 5 -4 10 3 6 8 10 11 10 2 0 4 -4 4 -10z m105 0 c-3 -5 -11 -10 -16
-10 -6 0 -7 5 -4 10 3 6 11 10 16 10 6 0 7 -4 4 -10z m115 6 c0 -2 -7 -7 -16
-10 -8 -3 -12 -2 -9 4 6 10 25 14 25 6z m-36 -22 c3 -8 2 -12 -4 -9 -6 3 -10
10 -10 16 0 14 7 11 14 -7z m-284 -4 c0 -5 -5 -10 -11 -10 -5 0 -7 5 -4 10 3
6 8 10 11 10 2 0 4 -4 4 -10z m75 0 c3 -5 1 -10 -4 -10 -6 0 -11 5 -11 10 0 6
2 10 4 10 3 0 8 -4 11 -10z m97 -12 c-7 -7 -16 -6 -29 1 -16 11 -15 11 6 5 17
-4 21 -3 16 6 -6 9 -4 11 4 5 9 -5 9 -11 3 -17z m88 18 c0 -2 -11 -11 -25 -20
-14 -9 -25 -13 -25 -8 0 5 10 14 23 20 27 13 27 13 27 8z m-290 -10 c0 -2 -7
-7 -16 -10 -8 -3 -12 -2 -9 4 6 10 25 14 25 6z m71 -6 c9 13 10 13 6 0 -2 -8
-10 -15 -17 -15 -7 0 -15 7 -17 15 -4 13 -3 13 6 0 10 -13 12 -13 22 0z m83
-5 c11 -8 16 -15 10 -15 -5 0 -18 7 -28 15 -11 8 -16 15 -10 15 5 0 18 -7 28
-15z m161 -24 c-6 -5 -25 10 -25 20 0 5 6 4 14 -3 8 -7 12 -15 11 -17z m-321
-16 c3 -9 0 -12 -9 -9 -7 3 -16 12 -19 19 -3 9 0 12 9 9 7 -3 16 -12 19 -19z
m50 0 c-4 -8 -11 -12 -17 -8 -8 5 -7 8 1 11 7 2 9 9 6 14 -4 7 -2 8 4 4 6 -4
9 -13 6 -21z m41 15 c-3 -5 -1 -10 5 -10 6 0 8 -5 4 -11 -4 -8 -9 -7 -15 2 -7
12 -3 29 7 29 3 0 2 -4 -1 -10z m145 0 c0 -5 -4 -10 -10 -10 -5 0 -10 5 -10
10 0 6 5 10 10 10 6 0 10 -4 10 -10z m-60 -37 c0 -1 -5 -5 -12 -9 -7 -4 -8 -3
-4 4 6 11 -5 16 -26 13 -4 0 -5 6 -2 13 5 12 9 12 25 -2 10 -9 19 -17 19 -19z
m49 11 c14 -12 -19 -1 -35 12 -18 14 -18 14 6 3 14 -6 27 -13 29 -15z m41 -11
c-11 -17 -11 -17 -6 0 3 10 6 24 7 30 0 9 2 9 5 0 3 -7 0 -20 -6 -30z m-310
13 c-7 -7 -13 -7 -20 0 -6 6 -3 10 10 10 13 0 16 -4 10 -10z m-25 -15 c3 -6
-5 -15 -17 -21 -21 -10 -21 -10 -6 3 10 8 15 17 11 20 -3 4 -4 7 0 7 3 0 8 -4
12 -9z m145 -1 c0 -5 -4 -10 -10 -10 -5 0 -10 5 -10 10 0 6 5 10 10 10 6 0 10
-4 10 -10z m-35 -21 c-5 -16 -4 -19 5 -14 9 6 11 4 5 -4 -10 -18 -27 2 -19 22
9 25 17 21 9 -4z m59 5 c3 -8 2 -12 -4 -9 -6 3 -10 10 -10 16 0 14 7 11 14 -7z
m-101 -11 c-3 -7 -9 -13 -15 -13 -5 0 -7 4 -4 9 4 5 0 11 -6 14 -7 3 -3 4 8 4
14 -1 20 -6 17 -14z m201 9 c2 -4 -4 -8 -14 -8 -10 0 -16 4 -14 8 3 4 9 8 14
8 5 0 11 -4 14 -8z m-249 -12 c3 -5 1 -10 -4 -10 -6 0 -11 5 -11 10 0 6 2 10
4 10 3 0 8 -4 11 -10z m201 1 c-4 -5 -1 -12 4 -14 6 -3 5 -4 -2 -3 -15 3 -23
26 -8 26 6 0 9 -4 6 -9z m-41 -31 c-3 -4 0 -11 5 -13 7 -4 6 -5 0 -4 -7 2 -10
6 -8 9 2 4 -6 14 -17 23 -19 16 -19 16 3 5 12 -6 20 -15 17 -20z m-200 10 c4
-6 11 -8 16 -5 5 4 9 1 9 -4 0 -15 -11 -13 -34 4 -11 8 -15 15 -9 15 7 0 15
-5 18 -10z m287 1 c-8 -4 -13 -12 -12 -17 1 -5 -4 -10 -12 -12 -9 -2 -8 0 2 7
8 6 11 11 7 11 -5 0 -5 5 -2 10 3 6 12 10 18 10 8 0 8 -3 -1 -9z m-331 -24
c-10 -9 -11 -8 -5 6 3 10 9 15 12 12 3 -3 0 -11 -7 -18z m133 11 c-6 -9 -44
-6 -44 3 0 4 11 6 24 5 13 0 22 -4 20 -8z m76 8 c0 -2 -7 -7 -16 -10 -8 -3
-12 -2 -9 4 6 10 25 14 25 6z m-165 -26 c3 -6 -1 -7 -9 -4 -18 7 -21 14 -7 14
6 0 13 -4 16 -10z m106 -27 c-11 -16 -11 -15 -5 6 4 17 3 21 -6 16 -9 -6 -11
-4 -5 4 5 9 11 9 17 3 7 -7 6 -16 -1 -29z m75 25 c4 -7 3 -8 -4 -4 -7 4 -12 3
-12 -2 0 -6 -7 -12 -15 -16 -19 -7 -19 -1 1 18 18 19 21 19 30 4z m-136 -8 c0
-5 -2 -10 -4 -10 -3 0 -8 5 -11 10 -3 6 -1 10 4 10 6 0 11 -4 11 -10z m-74
-12 c-9 -5 -23 -5 -32 0 -12 6 -7 9 16 9 23 0 28 -3 16 -9z m254 8 c0 -3 -4
-8 -10 -11 -5 -3 -10 -1 -10 4 0 6 5 11 10 11 6 0 10 -2 10 -4z m40 -6 c0 -5
-2 -10 -4 -10 -3 0 -8 5 -11 10 -3 6 -1 10 4 10 6 0 11 -4 11 -10z m-184 -18
c1 -7 0 -8 -3 -2 -2 5 -9 10 -14 10 -6 0 -7 -5 -3 -12 4 -7 3 -8 -5 -4 -14 9
-4 29 12 23 6 -2 12 -9 13 -15z m-141 -13 c-4 -5 -12 -9 -18 -8 -9 0 -8 2 1 6
6 2 9 10 6 15 -4 7 -2 8 5 4 6 -4 9 -12 6 -17z m41 12 c-4 -5 -1 -11 6 -13 8
-3 6 -6 -4 -10 -11 -5 -15 -2 -13 10 5 23 4 22 11 22 3 0 3 -4 0 -9z m134 -16
c-7 -8 -16 -15 -21 -15 -5 0 -1 8 9 18 20 22 31 19 12 -3z m130 21 c0 -3 -4
-8 -10 -11 -5 -3 -10 -1 -10 4 0 6 5 11 10 11 6 0 10 -2 10 -4z m-190 -26 c8
-5 11 -10 5 -10 -5 0 -17 5 -25 10 -8 5 -10 10 -5 10 6 0 17 -5 25 -10z m137
-4 c3 -3 1 -6 -6 -6 -7 0 -9 -5 -5 -12 4 -7 3 -8 -5 -4 -6 4 -8 12 -5 18 5 7
1 9 -9 5 -9 -3 -19 -2 -22 3 -6 9 42 6 52 -4z m-147 -41 c0 -5 -5 -3 -10 5 -5
8 -10 20 -10 25 0 6 5 3 10 -5 5 -8 10 -19 10 -25z m118 3 c3 2 7 -1 9 -7 1
-7 0 -8 -4 -1 -2 5 -9 8 -13 5 -5 -3 -14 5 -20 17 -11 22 -11 22 5 3 9 -11 19
-19 23 -17z m-162 -6 c-17 -16 -18 -16 -5 5 7 12 15 20 18 17 3 -2 -3 -12 -13
-22z m81 22 c-3 -3 -12 -4 -19 -1 -8 3 -5 6 6 6 11 1 17 -2 13 -5z m38 -4 c3
-6 -1 -7 -9 -4 -18 7 -21 14 -7 14 6 0 13 -4 16 -10z m-191 -15 c-10 -8 -23
-15 -28 -15 -6 0 -1 7 10 15 10 8 23 15 28 15 6 0 1 -7 -10 -15z m36 -5 c-8
-5 -19 -10 -25 -10 -5 0 -3 5 5 10 8 5 20 10 25 10 6 0 3 -5 -5 -10z m-80 -4
c0 -3 -4 -8 -10 -11 -5 -3 -10 -1 -10 4 0 6 5 11 10 11 6 0 10 -2 10 -4z m133
-11 c-3 -9 -8 -14 -10 -11 -3 3 -2 9 2 15 9 16 15 13 8 -4z m63 -4 c-4 -5 -1
-12 4 -14 6 -3 5 -4 -2 -3 -15 3 -23 26 -8 26 6 0 9 -4 6 -9z m80 -16 c2 -12
-2 -13 -19 -4 -32 17 -35 22 -8 14 18 -6 22 -4 16 6 -5 8 -4 10 0 6 5 -4 10
-14 11 -22z m-236 1 c-4 -4 -16 -4 -26 2 -16 9 -14 10 8 9 15 -1 23 -6 18 -11z
m65 4 c-3 -5 -12 -10 -18 -10 -7 0 -6 4 3 10 19 12 23 12 15 0z m55 -25 c0 -5
-5 -3 -10 5 -5 8 -10 20 -10 25 0 6 5 3 10 -5 5 -8 10 -19 10 -25z m-119 -5
c9 12 10 12 7 1 -7 -24 -26 -24 -38 1 -11 22 -11 22 5 3 14 -17 17 -18 26 -5z
m49 5 c0 -2 -6 -5 -13 -8 -8 -3 -14 1 -14 8 0 7 6 11 14 8 7 -3 13 -6 13 -8z
m27 0 c0 -8 -4 -12 -9 -9 -5 3 -6 10 -3 15 9 13 12 11 12 -6z m120 -7 c2 -18
0 -20 -7 -8 -12 18 -13 30 -2 30 4 0 9 -10 9 -22z m-242 2 c3 -6 -1 -7 -9 -4
-18 7 -21 14 -7 14 6 0 13 -4 16 -10z m147 -32 c-6 -6 -12 -6 -17 3 -6 8 -4
10 5 4 9 -5 10 -1 6 16 -6 21 -6 22 5 6 7 -13 8 -22 1 -29z m58 10 c0 -5 5 -6
12 -2 7 4 8 3 4 -4 -8 -14 -33 -5 -40 13 -3 9 0 12 10 8 7 -3 14 -9 14 -15z
m-144 -7 c-4 -5 0 -11 6 -14 7 -2 9 -8 5 -13 -9 -10 -28 16 -21 28 3 4 7 8 10
8 3 0 3 -4 0 -9z m-99 -7 c-3 -3 -12 -4 -19 -1 -8 3 -5 6 6 6 11 1 17 -2 13
-5z m157 -24 c-6 -6 -10 -2 -11 12 -2 16 1 18 10 9 7 -7 8 -14 1 -21z m120 15
c-10 -8 -23 -15 -28 -15 -6 0 -1 7 10 15 10 8 23 15 28 15 6 0 1 -7 -10 -15z
m-221 -10 c4 -8 1 -17 -5 -21 -7 -4 -8 -3 -4 4 4 7 2 12 -3 12 -6 0 -11 5 -11
10 0 15 17 12 23 -5z m167 7 c0 -5 -7 -9 -15 -9 -8 0 -12 4 -9 9 3 4 9 8 15 8
5 0 9 -4 9 -8z m-220 -12 c0 -5 -2 -10 -4 -10 -3 0 -8 5 -11 10 -3 6 -1 10 4
10 6 0 11 -4 11 -10z m-24 -12 c5 -7 3 -8 -6 -3 -9 6 -10 2 -5 -16 7 -23 7
-23 -8 -4 -11 15 -12 22 -4 27 15 10 15 10 23 -4z m205 -25 c-11 -16 -11 -15
-5 6 4 17 3 21 -6 16 -9 -6 -11 -4 -5 4 5 9 11 9 17 3 7 -7 6 -16 -1 -29z m55
18 c-4 -5 0 -11 6 -14 7 -3 3 -4 -8 -4 -21 1 -23 27 -2 27 5 0 7 -4 4 -9z
m-148 -22 c3 -11 2 -11 -7 1 -10 13 -12 13 -21 0 -5 -8 -10 -10 -10 -4 0 27
31 30 38 3z m-78 -4 c0 -2 -6 -5 -13 -8 -8 -3 -14 1 -14 8 0 7 6 11 14 8 7 -3
13 -6 13 -8z m120 0 c0 -2 -6 -5 -13 -8 -8 -3 -14 1 -14 8 0 7 6 11 14 8 7 -3
13 -6 13 -8z m-90 -5 c0 -5 -2 -10 -4 -10 -3 0 -8 5 -11 10 -3 6 -1 10 4 10 6
0 11 -4 11 -10z m120 0 c0 -5 -2 -10 -4 -10 -3 0 -8 5 -11 10 -3 6 -1 10 4 10
6 0 11 -4 11 -10z m37 -9 c0 -11 -5 -18 -9 -15 -4 3 -5 11 -1 19 7 21 12 19
10 -4z m-247 -11 c-8 -5 -19 -10 -25 -10 -5 0 -3 5 5 10 8 5 20 10 25 10 6 0
3 -5 -5 -10z m60 0 c-8 -5 -19 -10 -25 -10 -5 0 -3 5 5 10 8 5 20 10 25 10 6
0 3 -5 -5 -10z m60 0 c-8 -5 -19 -10 -25 -10 -5 0 -3 5 5 10 8 5 20 10 25 10
6 0 3 -5 -5 -10z m147 -12 c-3 -8 -6 -5 -6 6 -1 11 2 17 5 13 3 -3 4 -12 1
-19z m-99 -13 c-3 -3 -9 2 -12 12 -6 14 -5 15 5 6 7 -7 10 -15 7 -18z m54 11
c7 4 8 2 4 -5 -9 -13 -26 -5 -25 12 0 9 2 8 6 -1 2 -6 10 -9 15 -6z m-212 -6
c0 -5 -5 -10 -11 -10 -5 0 -7 5 -4 10 3 6 8 10 11 10 2 0 4 -4 4 -10z m75 0
c3 -5 1 -10 -4 -10 -6 0 -11 5 -11 10 0 6 2 10 4 10 3 0 8 -4 11 -10z m42 -4
c0 -8 -6 -12 -15 -9 -11 5 -11 7 0 14 7 5 13 9 14 9 0 0 1 -6 1 -14z m-147 0
c0 -2 -7 -7 -16 -10 -8 -3 -12 -2 -9 4 6 10 25 14 25 6z m71 -6 c9 13 10 13 6
0 -2 -8 -10 -15 -17 -15 -7 0 -15 7 -17 15 -4 13 -3 13 6 0 10 -13 12 -13 22
0z m101 -32 c-6 -6 -12 -6 -17 3 -6 8 -4 10 5 4 9 -5 10 -1 6 16 -6 21 -6 22
5 6 7 -13 8 -22 1 -29z m98 38 c0 -2 -8 -10 -17 -17 -16 -13 -17 -12 -4 4 13
16 21 21 21 13z m-40 -21 c0 -12 -19 -12 -23 0 -4 9 -1 12 9 8 7 -3 14 -7 14
-8z m-240 -25 c9 -16 8 -18 -5 -14 -8 3 -13 10 -10 14 3 5 -1 11 -7 13 -10 4
-10 6 -1 6 7 1 17 -8 23 -19z m54 -5 c-4 -8 -11 -12 -17 -8 -8 5 -7 8 1 11 7
2 9 9 6 14 -4 7 -2 8 4 4 6 -4 9 -13 6 -21z m41 15 c-3 -5 -1 -10 5 -10 6 0 8
-5 4 -11 -4 -8 -9 -7 -15 2 -7 12 -3 29 7 29 3 0 2 -4 -1 -10z m191 -2 c4 -7
3 -8 -4 -4 -7 4 -12 2 -12 -5 0 -7 -3 -10 -6 -6 -6 5 3 27 11 27 2 0 7 -5 11
-12z m-108 -24 c2 -1 -8 -1 -21 0 -15 0 -23 6 -20 14 4 10 9 10 22 0 9 -7 17
-13 19 -14z m42 6 c0 -5 -4 -10 -10 -10 -5 0 -10 5 -10 10 0 6 5 10 10 10 6 0
10 -4 10 -10z m-140 -20 c0 -5 -4 -10 -10 -10 -5 0 -10 5 -10 10 0 6 5 10 10
10 6 0 10 -4 10 -10z m175 0 c-3 -5 -12 -10 -18 -10 -7 0 -6 4 3 10 19 12 23
12 15 0z m-210 -21 c-5 -16 -4 -19 5 -14 9 6 11 4 5 -4 -10 -18 -27 2 -19 22
9 25 17 21 9 -4z m59 5 c3 -8 2 -12 -4 -9 -6 3 -10 10 -10 16 0 14 7 11 14 -7z
m96 6 c0 -5 -2 -10 -4 -10 -3 0 -8 5 -11 10 -3 6 -1 10 4 10 6 0 11 -4 11 -10z
m-197 -17 c-3 -7 -9 -13 -15 -13 -5 0 -7 4 -4 9 4 5 0 11 -6 14 -7 3 -3 4 8 4
14 -1 20 -6 17 -14z m172 -2 c3 -5 0 -13 -6 -17 -8 -5 -9 -3 -4 6 6 10 4 12
-8 7 -10 -3 -17 -2 -17 3 0 13 27 13 35 1z m65 -2 c12 -8 10 -9 -9 -4 -17 5
-22 4 -16 -5 5 -9 4 -11 -4 -6 -6 4 -9 12 -6 17 8 12 16 11 35 -2z m-102 -25
c8 -1 17 -5 20 -8 13 -14 -37 1 -59 17 l-24 18 25 -13 c14 -6 31 -13 38 -14z
m-158 -4 c0 -5 -4 -10 -10 -10 -5 0 -10 5 -10 10 0 6 5 10 10 10 6 0 10 -4 10
-10z m110 0 c8 -5 11 -10 5 -10 -5 0 -17 5 -25 10 -8 5 -10 10 -5 10 6 0 17
-5 25 -10z m98 -4 c-7 -8 -15 -12 -17 -11 -5 6 10 25 20 25 5 0 4 -6 -3 -14z
m40 0 c-10 -7 -14 -17 -10 -21 4 -5 1 -5 -7 0 -12 7 -11 10 4 22 24 17 36 17
13 -1z m-279 -29 c0 -9 -2 -8 -6 1 -2 6 -10 9 -15 6 -7 -4 -8 -2 -4 5 9 13 26
5 25 -12z m44 3 c-10 -11 -19 -20 -21 -20 -1 0 2 9 8 20 6 11 15 20 20 20 6 0
2 -9 -7 -20z m127 0 c0 -5 -2 -10 -4 -10 -3 0 -8 5 -11 10 -3 6 -1 10 4 10 6
0 11 -4 11 -10z m-74 -12 c-9 -5 -23 -5 -32 0 -12 6 -7 9 16 9 23 0 28 -3 16
-9z m162 4 c8 -6 2 -9 -18 -9 -20 0 -26 3 -18 9 7 4 15 8 18 8 3 0 11 -4 18
-8z m-273 -11 c3 -5 0 -13 -6 -17 -7 -4 -9 -3 -5 4 3 5 0 13 -6 15 -9 4 -10 6
-1 6 6 1 14 -3 18 -8z m207 2 c-6 -2 -9 -10 -6 -15 4 -7 2 -8 -5 -4 -13 9 -5
26 12 25 9 0 8 -2 -1 -6z m-191 -30 c-12 -20 -14 -14 -5 12 4 9 9 14 11 11 3
-2 0 -13 -6 -23z m52 -3 c-10 -9 -20 -15 -23 -13 -3 3 3 10 12 17 10 7 14 17
10 21 -4 5 -1 5 6 1 11 -6 10 -12 -5 -26z m50 10 c-3 -12 -8 -19 -11 -16 -5 6
5 36 12 36 2 0 2 -9 -1 -20z m182 10 c-3 -5 -12 -10 -18 -10 -7 0 -6 4 3 10
19 12 23 12 15 0z m-105 -20 c8 -5 11 -10 5 -10 -5 0 -17 5 -25 10 -8 5 -10
10 -5 10 6 0 17 -5 25 -10z m-196 -16 c3 -8 2 -12 -4 -9 -6 3 -10 10 -10 16 0
14 7 11 14 -7z m180 -34 c-5 -5 -10 3 -11 18 -1 22 0 24 9 8 6 -10 6 -22 2
-26z m89 25 c-3 -9 -8 -14 -10 -11 -3 3 -2 9 2 15 9 16 15 13 8 -4z m-287 -15
c5 1 10 -4 12 -12 3 -11 2 -11 -6 0 -5 8 -13 13 -18 12 -5 -1 -10 4 -12 12 -3
11 -2 11 6 0 5 -8 13 -13 18 -12z m160 -8 c-17 -16 -18 -16 -5 5 7 12 15 20
18 17 3 -2 -3 -12 -13 -22z m88 12 c6 -15 4 -15 -11 -3 -10 7 -20 15 -22 16
-2 2 3 3 11 3 9 0 19 -7 22 -16z m-213 -21 c-12 -20 -14 -14 -5 12 4 9 9 14
11 11 3 -2 0 -13 -6 -23z m44 8 c-3 -6 -11 -11 -16 -11 -5 0 -4 6 3 14 14 16
24 13 13 -3z m55 9 c0 -5 -5 -10 -11 -10 -5 0 -7 5 -4 10 3 6 8 10 11 10 2 0
4 -4 4 -10z m161 -13 c-10 -9 -11 -8 -5 6 3 10 9 15 12 12 3 -3 0 -11 -7 -18z
m-181 -19 c10 -21 10 -21 -3 -6 -8 10 -18 14 -22 10 -5 -4 -5 -1 -1 6 10 17
14 15 26 -10z m123 -7 c3 -13 1 -18 -9 -14 -7 2 -10 12 -7 20 5 12 3 14 -7 8
-9 -5 -11 -4 -6 4 9 15 22 7 29 -18z m51 -11 c-6 -5 -24 21 -24 34 0 6 6 1 14
-10 8 -10 12 -21 10 -24z m-307 23 c-4 -3 1 -11 10 -18 13 -9 13 -14 3 -20 -9
-6 -11 -4 -5 5 6 10 4 12 -7 7 -11 -4 -15 -1 -13 11 5 23 4 22 12 22 3 0 3 -3
0 -7z m204 -8 c5 4 6 -1 2 -10 -5 -13 -7 -14 -14 -3 -5 7 -8 18 -8 23 0 6 3 4
6 -3 2 -6 9 -10 14 -7z m-126 -5 c-3 -5 -11 -10 -16 -10 -6 0 -7 5 -4 10 3 6
11 10 16 10 6 0 7 -4 4 -10z m39 -21 c-4 -8 1 -9 17 -5 20 6 21 5 6 -4 -19
-12 -41 -4 -32 11 4 5 8 9 11 9 3 0 2 -5 -2 -11z m56 -14 c-7 -8 -16 -15 -21
-15 -5 0 -1 8 9 18 20 22 31 19 12 -3z m-187 -12 c-5 -12 -3 -14 7 -8 9 6 11
4 5 -4 -5 -9 -11 -9 -17 -3 -6 6 -7 15 -4 21 11 17 16 13 9 -6z m97 -3 c-6
-11 -13 -20 -16 -20 -2 0 0 9 6 20 6 11 13 20 16 20 2 0 0 -9 -6 -20z m124 12
c3 -5 -1 -9 -9 -9 -8 0 -12 4 -9 9 3 4 7 8 9 8 2 0 6 -4 9 -8z m-149 -12 c-3
-5 -12 -10 -18 -10 -7 0 -6 4 3 10 19 12 23 12 15 0z m199 1 c3 -5 -1 -11 -9
-15 -8 -3 -17 0 -21 6 -4 7 -3 8 4 4 7 -4 12 -2 12 3 0 13 7 14 14 2z m-163
-28 c-12 -20 -14 -14 -5 12 4 9 9 14 11 11 3 -2 0 -13 -6 -23z m204 17 c3 -6
-1 -7 -9 -4 -18 7 -21 14 -7 14 6 0 13 -4 16 -10z m-161 -15 c-4 -8 -10 -12
-15 -9 -5 3 -9 0 -9 -7 0 -7 -3 -9 -7 -5 -5 4 1 14 11 22 25 18 27 18 20 -1z
m90 0 c11 -8 16 -15 10 -15 -5 0 -18 7 -28 15 -11 8 -16 15 -10 15 5 0 18 -7
28 -15z m-184 -5 c0 -5 -4 -10 -10 -10 -5 0 -10 5 -10 10 0 6 5 10 10 10 6 0
10 -4 10 -10z m132 -12 c-7 -7 -12 -8 -12 -2 0 14 12 26 19 19 2 -3 -1 -11 -7
-17z m118 12 c8 -5 11 -10 5 -10 -5 0 -17 5 -25 10 -8 5 -10 10 -5 10 6 0 17
-5 25 -10z m-277 -33 c-5 -8 -8 -7 -11 1 -2 7 -9 9 -14 6 -7 -4 -8 -2 -4 4 4
6 13 9 21 6 8 -4 12 -11 8 -17z m59 1 c-7 -7 -16 -6 -29 1 -16 11 -15 11 6 5
17 -4 21 -3 16 6 -6 9 -4 11 4 5 9 -5 9 -11 3 -17z m184 5 c-2 -9 -9 -19 -17
-21 -11 -3 -11 -1 1 7 8 6 11 11 7 11 -5 0 -5 5 -2 10 9 15 14 12 11 -7z
m-124 -29 c-9 -16 -10 -14 -9 8 1 15 6 23 11 18 4 -4 4 -16 -2 -26z m88 32 c0
-3 -4 -8 -10 -11 -5 -3 -10 -1 -10 4 0 6 5 11 10 11 6 0 10 -2 10 -4z m-111
-29 c0 -9 -2 -8 -6 1 -2 6 -10 9 -15 6 -7 -4 -8 -2 -4 5 9 13 26 5 25 -12z
m86 4 c3 -5 0 -13 -6 -17 -8 -5 -9 -3 -4 6 6 9 1 10 -16 5 -19 -5 -21 -4 -9 4
19 13 27 14 35 2z m85 -11 c0 -5 -2 -10 -4 -10 -3 0 -8 5 -11 10 -3 6 -1 10 4
10 6 0 11 -4 11 -10z m-260 -5 c0 -2 -10 -9 -22 -15 -22 -11 -22 -10 -4 4 21
17 26 19 26 11z m45 -13 c-3 -3 -11 0 -18 7 -9 10 -8 11 6 5 10 -3 15 -9 12
-12z m83 -6 c-7 -8 -15 -12 -17 -11 -5 6 10 25 20 25 5 0 4 -6 -3 -14z m82 -8
c11 -22 10 -22 -4 -4 -16 20 -16 20 -32 0 -14 -18 -15 -18 -4 4 6 12 15 22 20
22 5 0 14 -10 20 -22z m27 7 c0 -8 -4 -12 -9 -9 -5 3 -6 10 -3 15 9 13 12 11
12 -6z m-159 -20 c-3 -3 -9 2 -12 12 -6 14 -5 15 5 6 7 -7 10 -15 7 -18z m-64
-24 c-5 -6 -34 20 -34 30 0 5 8 1 18 -8 10 -10 17 -20 16 -22z m38 17 c-7 -7
-16 -6 -29 1 -16 11 -15 11 6 5 17 -4 21 -3 16 6 -6 9 -4 11 4 5 9 -5 9 -11 3
-17z m-79 -1 c3 -8 -1 -14 -8 -14 -7 0 -11 6 -8 14 3 7 6 13 8 13 2 0 5 -6 8
-13z m132 -7 c3 -5 1 -10 -4 -10 -6 0 -11 5 -11 10 0 6 2 10 4 10 3 0 8 -4 11
-10z m103 2 c8 -6 2 -9 -18 -9 -20 0 -26 3 -18 9 7 4 15 8 18 8 3 0 11 -4 18
-8z m-131 -19 c-4 -3 -1 -13 6 -22 11 -14 10 -14 -5 -2 -21 15 -23 31 -6 31 6
0 8 -3 5 -7z m59 -5 c4 -7 3 -8 -4 -4 -7 4 -12 3 -12 -3 0 -5 6 -12 13 -14 9
-4 9 -6 0 -6 -15 -1 -26 16 -18 29 8 13 12 13 21 -2z m100 3 c-4 -5 -1 -11 6
-13 7 -3 5 -7 -6 -11 -10 -4 -15 -3 -11 3 3 6 0 10 -7 10 -9 0 -9 3 2 10 19
12 23 12 16 1z m-267 -4 c-2 -1 -13 -9 -24 -17 -19 -14 -19 -14 -6 3 7 9 18
17 24 17 6 0 8 -1 6 -3z m91 -27 c0 -5 -4 -12 -10 -15 -6 -4 -7 1 -3 11 4 11
2 15 -4 11 -6 -4 -14 0 -17 8 -4 13 -2 14 14 5 11 -6 20 -15 20 -20z m-60 -1
c0 -6 -4 -7 -10 -4 -5 3 -10 11 -10 16 0 6 5 7 10 4 6 -3 10 -11 10 -16z m114
-39 c-5 -5 -10 3 -11 18 -1 22 0 24 9 8 6 -10 6 -22 2 -26z m102 28 c5 -7 3
-8 -6 -3 -9 5 -10 1 -6 -16 6 -20 5 -21 -4 -6 -6 9 -8 22 -5 27 8 13 12 13 21
-2z m-256 -8 c0 -5 -2 -10 -4 -10 -3 0 -8 5 -11 10 -3 6 -1 10 4 10 6 0 11 -4
11 -10z m128 -1 c-2 -6 -7 -10 -12 -9 -5 1 -13 -4 -18 -12 -8 -10 -9 -10 -5 2
2 8 10 14 16 13 6 -2 11 2 11 7 0 6 3 10 6 10 3 0 4 -5 2 -11z m76 -5 c6 -15
4 -15 -11 -3 -10 7 -20 15 -22 16 -2 2 3 3 11 3 9 0 19 -7 22 -16z m72 -3 c-4
-5 -1 -11 6 -13 8 -3 6 -6 -4 -10 -11 -5 -15 -2 -13 10 5 23 4 22 11 22 3 0 3
-4 0 -9z m-236 -12 c12 -8 10 -9 -9 -4 -17 5 -22 4 -16 -5 5 -9 4 -11 -4 -6
-6 4 -9 12 -6 17 8 12 16 11 35 -2z m40 -9 c0 -5 -2 -10 -4 -10 -3 0 -8 5 -11
10 -3 6 -1 10 4 10 6 0 11 -4 11 -10z m160 -15 c14 -19 14 -19 -2 -6 -10 7
-18 18 -18 24 0 6 1 8 3 6 1 -2 9 -13 17 -24z m-99 1 c5 3 9 0 9 -5 0 -6 -5
-11 -11 -11 -5 0 -7 -6 -3 -12 4 -7 3 -10 -1 -5 -5 4 -10 18 -11 30 -2 12 0
16 2 9 3 -6 10 -10 15 -6z m46 -18 c-3 -7 -5 -2 -5 12 0 14 2 19 5 13 2 -7 2
-19 0 -25z m-87 17 c0 -2 -10 -9 -22 -15 -22 -11 -22 -10 -4 4 21 17 26 19 26
11z m-125 -14 c3 -5 2 -12 -3 -15 -5 -3 -9 1 -9 9 0 17 3 19 12 6z m155 -45
c0 -6 -7 -1 -15 10 -8 10 -15 23 -15 28 0 6 7 1 15 -10 8 -10 15 -23 15 -28z
m145 34 c3 -5 1 -10 -4 -10 -6 0 -11 5 -11 10 0 6 2 10 4 10 3 0 8 -4 11 -10z
m-34 -23 c-10 -9 -11 -8 -5 6 3 10 9 15 12 12 3 -3 0 -11 -7 -18z m-236 3 c3
-5 0 -7 -8 -4 -8 3 -18 1 -21 -4 -3 -6 1 -12 9 -16 22 -8 18 -24 -7 -36 -22
-11 -23 -11 -3 5 19 15 19 17 2 26 -14 8 -16 14 -6 25 13 16 25 18 34 4z m45
0 c-8 -5 -19 -10 -25 -10 -5 0 -3 5 5 10 8 5 20 10 25 10 6 0 3 -5 -5 -10z
m45 -9 c3 -5 0 -13 -6 -17 -8 -5 -9 -3 -4 6 6 9 1 10 -16 5 -19 -5 -21 -4 -9
4 19 13 27 14 35 2z m105 -1 c0 -5 -8 -10 -17 -10 -15 0 -16 2 -3 10 19 12 20
12 20 0z m-40 -4 c0 -3 -4 -8 -10 -11 -5 -3 -10 -1 -10 4 0 6 5 11 10 11 6 0
10 -2 10 -4z m85 -12 c-17 -13 -18 -16 -5 -24 9 -6 10 -10 3 -10 -22 0 -26 23
-8 37 11 7 21 13 24 13 3 0 -3 -7 -14 -16z m-181 -16 c-3 -4 -9 -8 -15 -8 -5
0 -9 4 -9 8 0 5 7 9 15 9 8 0 12 -4 9 -9z m56 2 c0 -5 -4 -10 -10 -10 -5 0
-10 5 -10 10 0 6 5 10 10 10 6 0 10 -4 10 -10z m60 2 c0 -5 -7 -9 -15 -9 -8 0
-12 4 -9 9 3 4 9 8 15 8 5 0 9 -4 9 -8z m95 -1 c3 -5 2 -12 -3 -15 -5 -3 -9 1
-9 9 0 17 3 19 12 6z m-198 -26 c0 -8 -4 -12 -9 -9 -5 3 -6 10 -3 15 9 13 12
11 12 -6z m57 4 c-4 -8 1 -9 17 -5 20 6 21 5 6 -4 -19 -12 -41 -4 -32 11 4 5
8 9 11 9 3 0 2 -5 -2 -11z m-84 -3 c0 -2 -7 -6 -15 -10 -8 -3 -15 -1 -15 4 0
6 7 10 15 10 8 0 15 -2 15 -4z m70 -40 c0 -6 -7 -1 -15 10 -8 10 -15 23 -15
28 0 6 7 1 15 -10 8 -10 15 -23 15 -28z m70 24 c-8 -5 -19 -10 -25 -10 -5 0
-3 5 5 10 8 5 20 10 25 10 6 0 3 -5 -5 -10z m56 -2 c-10 -6 -22 -6 -26 -2 -5
5 3 10 18 11 22 1 24 0 8 -9z m-250 -32 c0 -13 -4 -22 -8 -20 -9 6 -6 44 3 44
4 0 6 -11 5 -24z m98 -1 c-3 -7 -12 -16 -19 -19 -9 -3 -12 0 -8 10 3 7 9 14
15 14 5 0 6 5 2 12 -4 7 -3 8 4 4 6 -4 9 -13 6 -21z m121 16 c3 -6 -5 -15 -17
-21 -21 -10 -21 -10 -6 3 10 8 15 17 11 20 -3 4 -4 7 0 7 3 0 8 -4 12 -9z m76
-16 c5 4 9 1 9 -4 0 -6 -4 -11 -8 -11 -12 0 -32 22 -32 35 0 5 5 2 11 -8 6 -9
14 -15 20 -12z m-256 -4 c-8 -14 -25 -14 -25 0 0 5 5 7 10 4 6 -3 10 -1 10 6
0 7 3 10 6 6 3 -3 3 -10 -1 -16z m109 0 c-10 -10 -21 -16 -24 -14 -3 3 4 11
14 19 28 20 33 17 10 -5z m101 0 c-3 -6 -11 -11 -16 -11 -5 0 -4 6 3 14 14 16
24 13 13 -3z m-267 -42 c-3 -8 -7 -3 -11 10 -4 17 -3 21 5 13 5 -5 8 -16 6
-23z m174 -15 c-6 -12 -9 -7 -9 16 0 23 3 28 9 16 5 -9 5 -23 0 -32z m57 20
c14 -12 -19 -1 -35 12 -18 14 -18 14 6 3 14 -6 27 -13 29 -15z m47 17 c-3 -5
1 -12 10 -15 23 -9 26 -8 18 7 -4 6 -3 8 1 4 5 -4 10 -14 11 -22 2 -13 -2 -12
-27 1 -16 8 -27 19 -24 24 4 6 8 10 11 10 3 0 3 -4 0 -9z m-206 -21 c-8 -5
-19 -10 -25 -10 -5 0 -3 5 5 10 8 5 20 10 25 10 6 0 3 -5 -5 -10z m45 -9 c3
-5 0 -13 -6 -17 -8 -5 -9 -3 -4 6 6 9 1 10 -16 5 -19 -5 -21 -4 -9 4 19 13 27
14 35 2z m145 -1 c0 -5 -5 -10 -11 -10 -5 0 -7 5 -4 10 3 6 8 10 11 10 2 0 4
-4 4 -10z m-50 -4 c0 -2 -7 -7 -16 -10 -8 -3 -12 -2 -9 4 6 10 25 14 25 6z
m-194 -17 c3 -6 1 -16 -6 -22 -10 -9 -11 -9 -5 2 4 8 2 17 -6 22 -9 6 -10 9
-2 9 6 0 15 -5 19 -11z m138 -5 c3 -8 2 -12 -4 -9 -6 3 -10 10 -10 16 0 14 7
11 14 -7z m-70 -6 c-3 -4 -9 -8 -15 -8 -5 0 -9 4 -9 8 0 5 7 9 15 9 8 0 12 -4
9 -9z m56 -23 c0 -5 -5 -3 -10 5 -5 8 -10 20 -10 25 0 6 5 3 10 -5 5 -8 10
-19 10 -25z m120 20 c-7 -8 -17 -15 -23 -15 -6 0 -2 7 9 15 25 19 30 19 14 0z
m65 5 c-3 -5 -12 -10 -18 -10 -7 0 -6 4 3 10 19 12 23 12 15 0z m-228 -25 c0
-8 -4 -12 -9 -9 -5 3 -6 10 -3 15 9 13 12 11 12 -6z m201 6 c11 -7 10 -9 -3
-14 -9 -4 -14 -3 -10 2 3 5 -1 12 -7 14 -7 3 -8 6 -3 6 6 0 16 -3 23 -8z
m-228 -5 c0 -2 -7 -6 -15 -10 -8 -3 -15 -1 -15 4 0 6 7 10 15 10 8 0 15 -2 15
-4z m60 -21 c14 -19 14 -19 -2 -6 -10 7 -18 18 -18 24 0 6 1 8 3 6 1 -2 9 -13
17 -24z m35 5 c3 -5 1 -10 -4 -10 -6 0 -11 5 -11 10 0 6 2 10 4 10 3 0 8 -4
11 -10z m55 -25 c0 -5 -5 -3 -10 5 -5 8 -10 20 -10 25 0 6 5 3 10 -5 5 -8 10
-19 10 -25z m40 21 c-4 -4 -16 -4 -26 2 -16 9 -14 10 8 9 15 -1 23 -6 18 -11z
m-240 -16 c0 -5 -5 -10 -11 -10 -5 0 -7 5 -4 10 3 6 8 10 11 10 2 0 4 -4 4
-10z m96 -15 c3 -17 -12 -20 -21 -5 -3 6 -1 10 5 10 6 0 8 6 4 13 -4 6 -3 8 1
4 5 -4 10 -14 11 -22z m80 13 c4 -7 3 -8 -4 -4 -12 7 -16 -4 -13 -34 2 -13 0
-13 -8 -1 -6 10 -6 21 0 33 11 21 15 22 25 6z m-146 -35 c-11 -17 -11 -17 -6
0 3 10 6 24 7 30 0 9 2 9 5 0 3 -7 0 -20 -6 -30z m295 19 c-3 -3 -11 0 -18 7
-9 10 -8 11 6 5 10 -3 15 -9 12 -12z m-65 -12 c-6 -11 -12 -20 -14 -20 -2 0
-2 9 1 20 3 11 9 20 15 20 5 0 4 -9 -2 -20z m-170 -15 c0 -2 -6 -5 -13 -8 -8
-3 -14 1 -14 8 0 7 6 11 14 8 7 -3 13 -6 13 -8z m30 5 c0 -5 -5 -10 -11 -10
-5 0 -7 5 -4 10 3 6 8 10 11 10 2 0 4 -4 4 -10z m192 -36 c-6 -12 -9 -7 -9 16
0 23 3 28 9 16 5 -9 5 -23 0 -32z m-276 8 c-17 -16 -18 -16 -5 5 7 12 15 20
18 17 3 -2 -3 -12 -13 -22z m106 -14 c-6 -6 -12 -6 -17 3 -6 8 -4 10 5 4 9 -5
10 -1 6 16 -6 21 -6 22 5 6 7 -13 8 -22 1 -29z m-132 22 c0 -5 -5 -10 -11 -10
-5 0 -7 5 -4 10 3 6 8 10 11 10 2 0 4 -4 4 -10z m199 -17 c2 -2 -3 -3 -11 -3
-9 0 -19 7 -22 16 -6 15 -4 15 11 3 10 -7 20 -15 22 -16z m75 15 c-3 -5 -10
-6 -15 -3 -5 4 -9 1 -9 -6 0 -7 -3 -10 -6 -6 -9 9 3 24 20 24 8 0 13 -4 10 -9z
m-229 -18 c-3 -5 -1 -10 5 -10 6 0 8 -5 4 -11 -4 -8 -9 -7 -15 2 -7 12 -3 29
7 29 3 0 2 -4 -1 -10z m185 0 c0 -5 -2 -10 -4 -10 -3 0 -8 5 -11 10 -3 6 -1
10 4 10 6 0 11 -4 11 -10z m97 -5 c0 -8 -4 -12 -9 -9 -5 3 -6 10 -3 15 9 13
12 11 12 -6z m-222 -16 c-4 -5 -1 -9 6 -9 7 0 10 -3 6 -6 -3 -3 -14 -1 -24 5
-11 6 -13 11 -5 11 7 0 10 5 6 12 -4 7 -3 8 5 4 6 -4 9 -12 6 -17z m36 -12
c-10 -9 -11 -8 -5 6 3 10 9 15 12 12 3 -3 0 -11 -7 -18z m74 13 c3 -6 -1 -7
-9 -4 -18 7 -21 14 -7 14 6 0 13 -4 16 -10z m55 -21 c0 -5 -5 -9 -12 -9 -6 0
-8 3 -5 7 4 3 1 13 -6 22 -11 14 -10 14 6 2 9 -7 17 -17 17 -22z m52 7 c7 4 8
2 4 -5 -9 -13 -26 -5 -25 12 0 9 2 8 6 -1 2 -6 10 -9 15 -6z m-294 -8 c-2 -6
-10 -13 -16 -14 -7 -1 -8 0 -2 3 5 2 8 9 4 14 -3 5 0 9 6 9 7 0 10 -5 8 -12z
m212 -20 c0 -5 -11 -1 -25 8 -14 9 -25 18 -25 20 0 2 11 -2 25 -8 14 -6 25
-15 25 -20z m-187 9 c3 -8 -1 -14 -8 -14 -7 0 -11 6 -8 14 3 7 6 13 8 13 2 0
5 -6 8 -13z m103 -9 c-9 -5 -23 -5 -32 0 -12 6 -7 9 16 9 23 0 28 -3 16 -9z
m144 8 c0 -3 -4 -8 -10 -11 -5 -3 -10 -1 -10 4 0 6 5 11 10 11 6 0 10 -2 10
-4z m50 0 c0 -3 -4 -8 -10 -11 -5 -3 -10 -1 -10 4 0 6 5 11 10 11 6 0 10 -2
10 -4z m-246 -15 c3 -5 -1 -11 -9 -15 -8 -3 -17 0 -21 6 -4 7 -3 8 4 4 7 -4
12 -2 12 3 0 13 7 14 14 2z m61 -11 c-3 -5 -1 -10 6 -10 7 0 10 -3 6 -6 -9 -9
-28 6 -22 17 4 5 8 9 11 9 3 0 2 -4 -1 -10z m105 0 c0 -5 -4 -10 -10 -10 -5 0
-10 5 -10 10 0 6 5 10 10 10 6 0 10 -4 10 -10z m-203 -17 c3 -7 -6 -17 -19
-23 -22 -11 -22 -11 -3 5 17 14 18 17 5 26 -12 9 -12 10 -1 7 8 -3 16 -9 18
-15z m73 -18 c0 -5 -5 -3 -10 5 -5 8 -10 20 -10 25 0 6 5 3 10 -5 5 -8 10 -19
10 -25z m71 7 c-6 -2 -8 -9 -5 -14 4 -7 2 -8 -4 -4 -9 5 -8 12 1 27 7 12 13
15 16 7 2 -7 -1 -14 -8 -16z m102 14 c3 -8 0 -17 -7 -19 -10 -4 -12 1 -9 14 6
23 9 24 16 5z m-283 -5 c0 -6 -4 -12 -8 -15 -5 -3 -9 1 -9 9 0 8 4 15 9 15 4
0 8 -4 8 -9z m330 5 c0 -2 -7 -9 -15 -16 -13 -11 -14 -10 -9 4 5 14 24 23 24
12z m-95 -16 c3 -5 1 -10 -4 -10 -6 0 -11 5 -11 10 0 6 2 10 4 10 3 0 8 -4 11
-10z m-65 -44 c0 -6 -7 -1 -15 10 -8 10 -15 23 -15 28 0 6 7 1 15 -10 8 -10
15 -23 15 -28z m-90 15 c0 -4 -6 -8 -14 -8 -8 0 -12 6 -9 14 5 13 23 9 23 -6z
m262 5 c7 4 8 2 4 -5 -9 -13 -26 -5 -25 12 0 9 2 8 6 -1 2 -6 10 -9 15 -6z
m-319 -11 c-3 -9 -8 -14 -10 -11 -3 3 -2 9 2 15 9 16 15 13 8 -4z m107 5 c0
-5 -5 -10 -11 -10 -5 0 -7 5 -4 10 3 6 8 10 11 10 2 0 4 -4 4 -10z m165 -9 c3
-5 0 -13 -6 -17 -8 -5 -9 -3 -4 6 6 9 1 10 -16 5 -19 -5 -21 -4 -9 4 19 13 27
14 35 2z m-194 -38 c-11 -16 -11 -15 -5 6 4 17 3 21 -6 16 -9 -6 -11 -4 -5 4
5 9 11 9 17 3 7 -7 6 -16 -1 -29z m44 1 c-8 -6 -11 -15 -7 -19 4 -5 1 -5 -7 0
-12 7 -12 10 1 19 8 6 13 18 11 26 -4 13 -3 13 6 0 8 -11 7 -18 -4 -26z m55
32 c0 -3 -4 -8 -10 -11 -5 -3 -10 -1 -10 4 0 6 5 11 10 11 6 0 10 -2 10 -4z
m37 -2 c-3 -3 -12 -4 -19 -1 -8 3 -5 6 6 6 11 1 17 -2 13 -5z m-212 -24 c3 -5
1 -10 -4 -10 -6 0 -11 5 -11 10 0 6 2 10 4 10 3 0 8 -4 11 -10z m52 -15 c0
-20 -4 -19 -17 5 -8 15 -8 18 3 14 8 -3 14 -11 14 -19z m126 7 c-10 -10 -20
-17 -22 -16 -6 5 20 34 30 34 5 0 1 -8 -8 -18z m57 8 c0 -5 -2 -10 -4 -10 -3
0 -8 5 -11 10 -3 6 -1 10 4 10 6 0 11 -4 11 -10z m65 1 c3 -6 -3 -9 -14 -8
-11 0 -17 5 -15 9 7 11 22 10 29 -1z m26 -18 c-12 -20 -14 -14 -5 12 4 9 9 14
11 11 3 -2 0 -13 -6 -23z m-143 -18 c-6 -14 -13 -23 -15 -21 -5 5 15 46 22 46
3 0 -1 -11 -7 -25z m23 2 c-10 -9 -11 -8 -5 6 3 10 9 15 12 12 3 -3 0 -11 -7
-18z m33 -3 c3 -8 2 -12 -4 -9 -6 3 -10 10 -10 16 0 14 7 11 14 -7z m110 1 c3
-8 1 -15 -4 -15 -6 0 -10 7 -10 15 0 8 2 15 4 15 2 0 6 -7 10 -15z m-314 -6
c0 -4 -9 -7 -19 -6 -11 0 -18 4 -16 7 6 9 35 8 35 -1z m63 4 c3 -5 -6 -9 -20
-10 -19 -1 -22 1 -12 8 17 11 26 11 32 2z m39 -2 c-8 -4 -13 -12 -12 -17 1 -5
-4 -10 -12 -12 -9 -2 -8 0 2 7 8 6 11 11 7 11 -5 0 -5 5 -2 10 3 6 12 10 18
10 8 0 8 -3 -1 -9z m158 -12 c0 -5 5 -7 12 -3 7 4 8 3 4 -4 -4 -6 -13 -9 -21
-5 -17 6 -20 23 -5 23 6 0 10 -5 10 -11z m-45 -29 c-3 -4 0 -11 5 -13 7 -4 6
-5 -1 -4 -6 2 -9 6 -7 9 2 4 -6 14 -17 23 -19 16 -19 16 3 5 12 -6 20 -15 17
-20z m-160 11 c3 -5 2 -12 -3 -15 -5 -3 -9 1 -9 9 0 17 3 19 12 6z m254 6 c-2
-1 -13 -9 -24 -17 -19 -14 -19 -14 -6 3 7 9 18 17 24 17 6 0 8 -1 6 -3z m-199
-17 c-8 -5 -19 -10 -25 -10 -5 0 -3 5 5 10 8 5 20 10 25 10 6 0 3 -5 -5 -10z
m67 4 c-3 -3 -11 -7 -19 -8 -7 -1 -24 -8 -38 -15 l-25 -12 23 18 c20 16 74 31
59 17z m157 -2 c2 -4 -5 -9 -17 -9 -17 -2 -19 0 -7 7 18 12 18 12 24 2z m-324
-6 c0 -2 -7 -7 -16 -10 -8 -3 -12 -2 -9 4 6 10 25 14 25 6z m66 -18 c5 -7 3
-8 -6 -3 -9 5 -10 1 -6 -16 6 -20 5 -21 -4 -6 -6 9 -8 22 -5 27 8 13 12 13 21
-2z m106 5 c-6 -2 -10 -9 -6 -14 3 -5 0 -9 -5 -9 -12 0 -14 13 -4 23 3 4 11 7
17 6 6 0 5 -3 -2 -6z m-159 -17 c4 -10 0 -12 -15 -8 -15 4 -17 7 -6 13 17 11
15 11 21 -5z m277 10 c0 -3 -4 -8 -10 -11 -5 -3 -10 -1 -10 4 0 6 5 11 10 11
6 0 10 -2 10 -4z m-177 -21 c-3 -9 -8 -14 -10 -11 -3 3 -2 9 2 15 9 16 15 13
8 -4z m103 3 c-10 -6 -22 -6 -26 -2 -5 5 3 10 18 11 22 1 24 0 8 -9z m49 -7
c3 -5 0 -13 -6 -17 -8 -4 -9 -3 -5 4 4 7 2 12 -3 12 -6 0 -11 -5 -11 -12 0 -6
-3 -9 -6 -5 -7 7 4 27 16 27 5 0 11 -4 15 -9z m62 3 c-3 -3 -12 -4 -19 -1 -8
3 -5 6 6 6 11 1 17 -2 13 -5z m-283 -20 c3 -8 2 -12 -4 -9 -6 3 -10 10 -10 16
0 14 7 11 14 -7z m46 6 c0 -5 -4 -10 -10 -10 -5 0 -10 5 -10 10 0 6 5 10 10
10 6 0 10 -4 10 -10z m130 -14 c0 -8 -7 -16 -15 -20 -12 -4 -13 -2 -2 14 14
24 17 25 17 6z m-193 -11 c5 -4 2 -5 -6 0 -11 6 -13 4 -8 -8 9 -23 0 -21 -13
2 -7 15 -7 19 5 17 8 -1 18 -6 22 -11z m85 -3 c-7 -2 -9 -9 -6 -14 4 -7 2 -8
-4 -4 -6 4 -9 13 -6 21 4 8 11 12 17 8 8 -5 7 -8 -1 -11z m62 10 c-5 -4 -12
-11 -15 -15 -3 -5 -9 -2 -12 5 -3 9 3 14 15 15 11 1 16 -1 12 -5z m171 -11 c3
-5 0 -13 -6 -17 -7 -4 -9 -3 -5 4 3 6 -2 13 -11 15 -16 4 -16 5 -1 6 9 0 19
-3 23 -8z m-295 -11 c0 -5 -5 -10 -11 -10 -5 0 -7 5 -4 10 3 6 8 10 11 10 2 0
4 -4 4 -10z m232 -36 c-6 -12 -9 -7 -9 16 0 23 3 28 9 16 5 -9 5 -23 0 -32z
m33 28 c-3 -3 -11 0 -18 7 -9 10 -8 11 6 5 10 -3 15 -9 12 -12z m45 -7 c-7 -8
-16 -15 -21 -15 -5 0 -1 8 9 18 20 22 31 19 12 -3z m-274 -5 c5 1 10 -4 12
-12 3 -11 2 -11 -6 0 -5 8 -13 13 -18 12 -5 -1 -10 4 -12 12 -3 11 -2 11 6 0
5 -8 13 -13 18 -12z m88 -5 c-10 -8 -23 -15 -28 -15 -6 0 -1 7 10 15 10 8 23
15 28 15 6 0 1 -7 -10 -15z m216 5 c0 -5 -5 -10 -11 -10 -5 0 -7 5 -4 10 3 6
8 10 11 10 2 0 4 -4 4 -10z m-265 -9 c3 -5 2 -12 -3 -15 -5 -3 -9 1 -9 9 0 17
3 19 12 6z m100 0 c3 -5 0 -13 -6 -17 -8 -5 -9 -3 -4 6 6 9 1 10 -16 5 -19 -5
-21 -4 -9 4 19 13 27 14 35 2z m-162 -31 c-3 -12 -6 -19 -7 -18 -1 2 -8 11
-15 21 -12 15 -12 17 4 11 14 -6 16 -4 10 6 -5 8 -4 11 3 7 5 -4 8 -16 5 -27z
m267 20 c11 -7 11 -10 2 -10 -7 0 -10 -5 -6 -12 4 -7 3 -8 -5 -4 -6 4 -8 12
-5 18 5 8 1 9 -10 5 -10 -4 -15 -3 -11 3 8 12 16 12 35 0z m84 2 c2 -4 -5 -9
-17 -9 -17 -2 -19 0 -7 7 18 12 18 12 24 2z m-47 -17 c0 -8 -4 -12 -9 -9 -5 3
-6 10 -3 15 9 13 12 11 12 -6z m-132 -5 c-3 -5 -12 -10 -18 -10 -7 0 -6 4 3
10 19 12 23 12 15 0z m-122 -21 c-8 -8 -13 -7 -18 2 -5 8 -4 10 3 5 7 -4 12
-2 12 5 0 7 3 9 7 6 4 -4 2 -12 -4 -18z m91 -29 c-5 -5 -10 3 -11 18 -1 22 0
24 9 8 6 -10 6 -22 2 -26z m58 18 c-7 -7 -16 -6 -29 1 -16 11 -15 11 6 5 17
-4 21 -3 16 6 -6 9 -4 11 4 5 9 -5 9 -11 3 -17z m89 -15 c-11 -16 -11 -15 -5
6 4 17 3 21 -6 16 -9 -6 -11 -4 -5 4 5 9 11 9 17 3 7 -7 6 -16 -1 -29z m63 23
c-5 -13 -34 -31 -34 -21 0 5 30 35 35 35 3 0 2 -6 -1 -14z m-326 -21 c-3 -3
-9 2 -12 12 -6 14 -5 15 5 6 7 -7 10 -15 7 -18z m78 -7 c-9 -12 -16 -19 -16
-15 0 11 24 47 28 42 2 -2 -3 -14 -12 -27z m-26 12 c0 -5 -2 -10 -4 -10 -3 0
-8 5 -11 10 -3 6 -1 10 4 10 6 0 11 -4 11 -10z m310 -21 c0 -5 -5 -9 -12 -9
-6 0 -8 3 -5 7 4 3 1 13 -6 22 -11 14 -10 14 6 2 9 -7 17 -17 17 -22z m-165
11 c3 -5 1 -10 -4 -10 -6 0 -11 5 -11 10 0 6 2 10 4 10 3 0 8 -4 11 -10z m45
-10 c0 -5 -2 -10 -4 -10 -3 0 -8 5 -11 10 -3 6 -1 10 4 10 6 0 11 -4 11 -10z
m30 -15 c-7 -8 -16 -15 -21 -15 -5 0 -1 8 9 18 20 22 31 19 12 -3z m-225 -14
c-6 -5 -25 10 -25 20 0 5 6 4 14 -3 8 -7 12 -15 11 -17z m55 14 c4 3 11 -2 14
-10 4 -13 2 -14 -14 -5 -11 6 -20 16 -19 23 0 9 2 9 6 -1 2 -6 8 -10 13 -7z
m60 -6 c0 -6 -4 -7 -10 -4 -5 3 -10 11 -10 16 0 6 5 7 10 4 6 -3 10 -11 10
-16z m44 -4 c-10 -8 -23 -15 -28 -15 -6 0 -1 7 10 15 10 8 23 15 28 15 6 0 1
-7 -10 -15z m125 -3 c0 -11 -2 -12 -6 -4 -2 6 -9 10 -13 7 -5 -3 -11 -2 -14 3
-2 4 4 9 15 9 12 1 19 -4 18 -15z m66 0 c-3 -3 -11 0 -18 7 -9 10 -8 11 6 5
10 -3 15 -9 12 -12z m-315 -9 c-1 -13 -30 -48 -30 -36 0 7 5 15 10 18 6 4 8
11 5 16 -4 5 -1 9 4 9 6 0 11 -3 11 -7z m153 -16 c-5 -8 -8 -7 -11 1 -2 7 -9
9 -14 6 -7 -4 -8 -2 -4 4 4 6 13 9 21 6 8 -4 12 -11 8 -17z m67 3 c6 -11 8
-20 6 -20 -3 0 -10 9 -16 20 -6 11 -8 20 -6 20 3 0 10 -9 16 -20z m52 -26 c-6
-12 -9 -7 -9 16 0 23 3 28 9 16 5 -9 5 -23 0 -32z m39 28 c-7 -2 -18 1 -23 6
-8 8 -4 9 13 5 13 -4 18 -8 10 -11z m-116 -2 c3 -6 -1 -7 -9 -4 -18 7 -21 14
-7 14 6 0 13 -4 16 -10z m-125 -15 c19 -22 8 -25 -12 -3 -10 10 -14 18 -9 18
5 0 14 -7 21 -15z m40 9 c0 -8 -19 -13 -24 -6 -3 5 1 9 9 9 8 0 15 -2 15 -3z
m-153 -19 c0 -8 -4 -12 -9 -9 -5 3 -6 10 -3 15 9 13 12 11 12 -6z m83 4 c12
-8 10 -9 -9 -4 -17 5 -22 4 -16 -5 5 -9 4 -11 -4 -6 -6 4 -9 12 -6 17 8 12 16
11 35 -2z m289 7 c-2 -2 -15 -9 -29 -15 -24 -11 -24 -11 -6 3 16 13 49 24 35
12z m-209 -60 c0 -6 -7 -1 -15 10 -8 10 -15 23 -15 28 0 6 7 1 15 -10 8 -10
15 -23 15 -28z m37 24 c1 -16 -1 -17 -12 -7 -11 10 -8 19 10 27 1 0 1 -9 2
-20z m84 -3 c-10 -9 -11 -8 -5 6 3 10 9 15 12 12 3 -3 0 -11 -7 -18z m138 -5
c-5 -2 -6 -9 -2 -15 3 -7 2 -9 -2 -4 -5 4 -10 17 -12 28 -2 16 -1 18 11 7 8
-7 10 -15 5 -16z m-379 8 c0 -5 -2 -10 -4 -10 -3 0 -8 5 -11 10 -3 6 -1 10 4
10 6 0 11 -4 11 -10z m60 -2 c0 -4 -4 -8 -9 -8 -6 0 -12 4 -15 8 -3 5 1 9 9 9
8 0 15 -4 15 -9z m156 -6 c1 -7 0 -8 -3 -2 -2 5 -9 8 -14 4 -5 -3 -9 0 -9 6 0
15 23 7 26 -8z m127 3 c-3 -9 -8 -14 -10 -11 -3 3 -2 9 2 15 9 16 15 13 8 -4z
m-51 -9 c7 4 8 2 4 -5 -9 -13 -26 -5 -25 12 0 9 2 8 6 -1 2 -6 10 -9 15 -6z
m-256 -22 c1 -9 0 -13 -4 -10 -3 4 -7 14 -8 22 -1 9 0 13 4 10 3 -4 7 -14 8
-22z m41 12 c0 -8 -6 -12 -15 -9 -11 5 -11 7 0 14 7 5 13 9 14 9 0 0 1 -6 1
-14z m234 -13 c-12 -20 -14 -14 -5 12 4 9 9 14 11 11 3 -2 0 -13 -6 -23z
m-308 -4 c-8 -8 -13 -7 -18 2 -5 8 -4 10 3 5 7 -4 12 -2 12 5 0 7 3 9 7 6 4
-4 2 -12 -4 -18z m99 -21 c-6 -6 -12 -6 -17 3 -6 8 -4 10 5 4 9 -5 10 -1 6 16
-6 21 -6 22 5 6 7 -13 8 -22 1 -29z m95 15 c1 -22 -1 -24 -8 -10 -6 9 -7 22
-4 27 9 14 10 13 12 -17z m31 7 c-7 -10 -14 -17 -17 -15 -4 4 18 35 25 35 2 0
-1 -9 -8 -20z m-59 -17 c2 -2 -3 -3 -11 -3 -9 0 -19 7 -22 16 -6 15 -4 15 11
3 10 -7 20 -15 22 -16z m101 23 c0 -3 -4 -8 -10 -11 -5 -3 -10 -1 -10 4 0 6 5
11 10 11 6 0 10 -2 10 -4z m93 -3 c3 -5 -6 -9 -20 -10 -19 -1 -22 1 -12 8 17
11 26 11 32 2z m39 -21 c-7 -2 -10 -8 -7 -13 4 -5 -2 -6 -11 -2 -11 4 -13 8
-6 11 7 2 10 8 7 13 -4 5 2 6 11 2 11 -4 13 -8 6 -11z m-378 0 c3 -5 -1 -9 -9
-9 -8 0 -12 4 -9 9 3 4 7 8 9 8 2 0 6 -4 9 -8z m46 4 c0 -2 -7 -7 -16 -10 -8
-3 -12 -2 -9 4 6 10 25 14 25 6z m219 -36 c11 -24 11 -24 -3 -6 -9 11 -16 24
-16 30 0 12 5 7 19 -24z m67 7 c1 -9 -2 -15 -7 -11 -5 3 -7 9 -4 14 3 4 0 11
-5 13 -6 3 -5 4 1 3 7 -1 13 -10 15 -19z m-276 3 c0 -5 -2 -10 -4 -10 -3 0 -8
5 -11 10 -3 6 -1 10 4 10 6 0 11 -4 11 -10z m60 0 c0 -5 -4 -10 -10 -10 -5 0
-10 5 -10 10 0 6 5 10 10 10 6 0 10 -4 10 -10z m50 0 c8 -5 11 -10 5 -10 -5 0
-17 5 -25 10 -8 5 -10 10 -5 10 6 0 17 -5 25 -10z m233 -21 c-8 -8 -13 -7 -18
2 -6 8 -4 10 5 4 10 -6 12 -4 6 11 -6 15 -5 17 5 7 9 -10 10 -16 2 -24z m-172
-2 c-10 -9 -11 -8 -5 6 3 10 9 15 12 12 3 -3 0 -11 -7 -18z m74 5 c-3 -3 -11
0 -18 7 -9 10 -8 11 6 5 10 -3 15 -9 12 -12z m-224 -29 c-11 -16 -11 -15 -5 6
4 17 3 21 -6 16 -9 -6 -11 -4 -5 4 5 9 11 9 17 3 7 -7 6 -16 -1 -29z m64 10
c-11 -7 -24 -13 -29 -12 -6 0 -5 3 2 6 6 2 10 9 7 14 -4 5 2 6 11 2 13 -5 15
-3 9 7 -6 9 -4 11 5 5 10 -6 9 -11 -5 -22z m307 -19 c-6 -12 -9 -7 -9 16 0 23
3 28 9 16 5 -9 5 -23 0 -32z m-396 1 c1 -9 -4 -11 -14 -7 -10 4 -12 7 -4 10 7
2 9 9 5 15 -3 7 -2 8 2 4 5 -4 10 -14 11 -22z m212 17 c8 -6 2 -9 -18 -9 -20
0 -26 3 -18 9 7 4 15 8 18 8 3 0 11 -4 18 -8z m78 -4 c-9 -5 -23 -5 -32 0 -12
6 -7 9 16 9 23 0 28 -3 16 -9z m84 2 c0 -5 -2 -10 -4 -10 -3 0 -8 5 -11 10 -3
6 -1 10 4 10 6 0 11 -4 11 -10z m61 -13 c-10 -9 -11 -8 -5 6 3 10 9 15 12 12
3 -3 0 -11 -7 -18z m-316 3 c3 -5 1 -10 -4 -10 -6 0 -11 5 -11 10 0 6 2 10 4
10 3 0 8 -4 11 -10z m-84 -27 c-12 -20 -14 -14 -5 12 4 9 9 14 11 11 3 -2 0
-13 -6 -23z m134 9 c-3 -3 -11 0 -18 7 -9 10 -8 11 6 5 10 -3 15 -9 12 -12z
m90 9 c3 -6 -4 -15 -16 -21 -12 -7 -19 -8 -15 -2 3 6 0 13 -6 16 -7 3 -2 3 11
0 16 -4 21 -3 17 5 -4 6 -5 11 -2 11 3 0 7 -4 11 -9z m35 -11 c-6 -11 -15 -20
-20 -20 -6 0 -2 9 7 20 10 11 19 20 21 20 1 0 -2 -9 -8 -20z m167 0 c1 -11 -2
-20 -7 -20 -6 0 -7 17 -1 38 3 8 7 -1 8 -18z m-112 -9 c-3 -6 -11 -11 -16 -11
-5 0 -4 6 3 14 14 16 24 13 13 -3z m56 -4 c-10 -9 -11 -8 -5 6 3 10 9 15 12
12 3 -3 0 -11 -7 -18z m-324 -2 c0 -18 -24 -28 -33 -13 -4 6 -3 8 3 5 6 -4 13
0 17 8 7 19 13 19 13 0z m47 0 c-10 -8 -23 -15 -28 -15 -6 0 -1 7 10 15 10 8
23 15 28 15 6 0 1 -7 -10 -15z m36 -25 c9 -16 8 -18 -5 -14 -8 3 -13 10 -10
14 3 5 -1 11 -7 13 -10 4 -10 6 -1 6 7 1 17 -8 23 -19z m56 8 c5 -7 3 -8 -6
-3 -9 5 -10 1 -6 -16 6 -20 5 -21 -4 -6 -6 9 -8 22 -5 27 8 13 12 13 21 -2z
m72 -13 c-6 -14 -15 -25 -20 -25 -5 0 -1 11 8 25 9 14 18 25 20 25 2 0 -2 -11
-8 -25z m72 15 c0 -5 -5 -10 -11 -10 -5 0 -7 5 -4 10 3 6 8 10 11 10 2 0 4 -4
4 -10z m50 -11 c-12 -22 -31 -21 -38 2 -3 11 -2 11 7 -1 10 -13 13 -13 22 3
14 24 22 21 9 -4z m74 13 c3 -5 -1 -9 -9 -9 -8 0 -12 4 -9 9 3 4 7 8 9 8 2 0
6 -4 9 -8z m-154 -6 c0 -2 -7 -7 -16 -10 -8 -3 -12 -2 -9 4 6 10 25 14 25 6z
m120 0 c0 -2 -7 -7 -16 -10 -8 -3 -12 -2 -9 4 6 10 25 14 25 6z m-330 -20 c-4
-4 -16 -4 -26 2 -16 9 -14 10 8 9 15 -1 23 -6 18 -11z m122 7 c-6 -2 -10 -9
-7 -13 3 -5 1 -11 -4 -14 -7 -5 -8 11 -2 32 1 1 7 2 14 1 9 0 9 -2 -1 -6z
m251 -16 c7 3 8 2 4 -2 -14 -16 -36 -14 -29 3 4 10 7 12 10 4 2 -7 9 -9 15 -5z
m-413 -7 c0 -5 -5 -10 -11 -10 -5 0 -7 5 -4 10 3 6 8 10 11 10 2 0 4 -4 4 -10z
m134 -29 c-5 -6 -34 20 -34 30 0 5 8 1 18 -8 10 -10 17 -20 16 -22z m166 19
c0 -5 -9 -14 -20 -20 -16 -9 -18 -8 -14 5 3 8 11 12 17 8 6 -4 8 0 4 11 -4 10
-3 15 3 11 6 -3 10 -10 10 -15z m-288 -22 c-8 -8 -9 -4 -5 13 4 13 8 18 11 10
2 -7 -1 -18 -6 -23z m220 10 c-7 -7 -12 -8 -12 -2 0 14 12 26 19 19 2 -3 -1
-11 -7 -17z m-157 2 c3 -5 2 -10 -4 -10 -5 0 -13 5 -16 10 -3 6 -2 10 4 10 5
0 13 -4 16 -10z m119 -5 c11 -8 16 -15 10 -15 -5 0 -18 7 -28 15 -11 8 -16 15
-10 15 5 0 18 -7 28 -15z m156 5 c0 -5 -5 -10 -11 -10 -5 0 -7 -5 -3 -12 4 -7
3 -8 -4 -4 -6 4 -9 13 -5 21 6 17 23 20 23 5z m50 -4 c0 -3 -4 -8 -10 -11 -5
-3 -10 -1 -10 4 0 6 5 11 10 11 6 0 10 -2 10 -4z m-361 -13 c-3 -20 2 -27 11
-13 7 12 9 10 7 -7 -1 -21 -3 -21 -19 -6 -10 8 -15 20 -12 24 6 11 14 12 13 2z
m91 -8 c0 -2 -6 -5 -13 -8 -8 -3 -14 1 -14 8 0 7 6 11 14 8 7 -3 13 -6 13 -8z
m46 3 c4 -7 3 -8 -4 -4 -7 4 -12 2 -12 -4 0 -6 -5 -8 -11 -4 -8 4 -7 9 2 15
18 11 17 11 25 -3z m245 -25 c-11 -16 -11 -15 -5 6 4 17 3 21 -6 16 -9 -6 -11
-4 -5 4 5 9 11 9 17 3 7 -7 6 -16 -1 -29z m-340 4 c-10 -9 -11 -8 -5 6 3 10 9
15 12 12 3 -3 0 -11 -7 -18z m132 -4 c-3 -7 -6 -13 -8 -13 -2 0 -5 6 -8 13 -3
8 1 14 8 14 7 0 11 -6 8 -14z m30 -1 c-10 -10 -20 -17 -22 -16 -6 5 20 34 30
34 5 0 1 -8 -8 -18z m82 7 c11 -16 1 -19 -13 -3 -7 8 -8 14 -3 14 5 0 13 -5
16 -11z m-30 -8 c3 -5 0 -13 -6 -17 -8 -5 -9 -3 -4 6 6 9 1 10 -16 5 -19 -5
-21 -4 -9 4 19 13 27 14 35 2z m102 -5 c0 -8 -6 -12 -15 -9 -11 5 -11 7 0 14
7 5 13 9 14 9 0 0 1 -6 1 -14z m-302 -6 c-3 -5 -2 -10 3 -10 15 0 22 -29 9
-36 -7 -4 -9 -4 -5 1 4 4 0 14 -8 22 -12 13 -11 33 2 33 3 0 2 -4 -1 -10z
m265 6 c0 -3 -4 -8 -10 -11 -5 -3 -10 -1 -10 4 0 6 5 11 10 11 6 0 10 -2 10
-4z m-199 -20 c5 3 9 0 9 -6 0 -15 -23 -7 -26 8 -1 7 0 8 3 2 2 -5 9 -8 14 -4z
m87 -10 c-7 -8 -15 -12 -17 -11 -5 6 10 25 20 25 5 0 4 -6 -3 -14z m47 -5 c3
-5 0 -13 -6 -17 -7 -4 -9 -3 -5 4 3 5 0 13 -6 15 -9 4 -10 6 -1 6 6 1 14 -3
18 -8z m115 5 c0 -2 -7 -7 -16 -10 -8 -3 -12 -2 -9 4 6 10 25 14 25 6z m-210
-13 c0 -5 -5 -15 -10 -23 -7 -12 -9 -10 -7 8 1 19 17 33 17 15z m237 0 c-4 -3
-1 -13 6 -22 11 -14 10 -14 -5 -2 -21 15 -23 31 -6 31 6 0 8 -3 5 -7z m-287
-23 c8 -5 11 -10 5 -10 -5 0 -17 5 -25 10 -8 5 -10 10 -5 10 6 0 17 -5 25 -10z
m180 -12 c11 -22 11 -23 -5 -3 -14 17 -17 18 -25 5 -5 -8 -10 -10 -10 -4 0 30
26 31 40 2z m-80 -4 c0 -2 -7 -4 -15 -4 -8 0 -15 4 -15 10 0 5 7 7 15 4 8 -4
15 -8 15 -10z m27 1 c0 -8 -4 -12 -9 -9 -5 3 -6 10 -3 15 9 13 12 11 12 -6z
m88 -3 c-3 -3 -11 0 -18 7 -9 10 -8 11 6 5 10 -3 15 -9 12 -12z m47 4 c7 4 8
2 4 -4 -4 -6 -13 -9 -21 -6 -8 4 -12 11 -8 17 5 8 8 7 11 -1 2 -7 9 -9 14 -6z
m-217 -16 c3 -6 -1 -7 -9 -4 -18 7 -21 14 -7 14 6 0 13 -4 16 -10z m239 -1
c-3 -6 0 -15 7 -20 9 -6 10 -9 2 -9 -15 0 -26 17 -18 30 3 6 8 10 11 10 3 0 2
-5 -2 -11z m-170 -7 c3 -5 -1 -9 -9 -9 -8 0 -15 4 -15 9 0 4 4 8 9 8 6 0 12
-4 15 -8z m56 -2 c0 -5 -4 -10 -10 -10 -5 0 -10 5 -10 10 0 6 5 10 10 10 6 0
10 -4 10 -10z m60 0 c0 -5 -4 -10 -10 -10 -5 0 -10 5 -10 10 0 6 5 10 10 10 6
0 10 -4 10 -10z m-165 -20 c3 -5 1 -10 -4 -10 -6 0 -11 5 -11 10 0 6 2 10 4
10 3 0 8 -4 11 -10z m77 -12 c-7 -7 -16 -6 -29 1 -16 11 -15 11 6 5 17 -4 21
-3 16 6 -6 9 -4 11 4 5 9 -5 9 -11 3 -17z m42 11 c-4 -8 1 -9 17 -5 20 6 21 5
6 -4 -19 -12 -41 -4 -32 11 4 5 8 9 11 9 3 0 2 -5 -2 -11z m82 -1 c4 -7 4 -10
-1 -6 -4 4 -14 1 -22 -7 -8 -8 -19 -15 -25 -15 -6 0 0 9 13 20 29 23 26 23 35
8z m-161 -26 c-3 -3 -11 0 -18 7 -9 10 -8 11 6 5 10 -3 15 -9 12 -12z m190 8
c-3 -5 -12 -10 -18 -10 -7 0 -6 4 3 10 19 12 23 12 15 0z m-128 -15 c0 -8 -4
-15 -9 -15 -10 0 -11 14 -1 23 9 10 10 9 10 -8z m38 -15 c-3 -5 -12 -10 -18
-10 -7 0 -6 4 3 10 19 12 23 12 15 0z m50 -8 c-3 -3 -11 0 -18 7 -9 10 -8 11
6 5 10 -3 15 -9 12 -12z m49 2 c3 -8 2 -12 -4 -9 -6 3 -10 10 -10 16 0 14 7
11 14 -7z m-99 -23 c3 -5 2 -12 -3 -15 -5 -3 -9 1 -9 9 0 17 3 19 12 6z m58
-33 c-10 -21 -10 -21 -9 9 1 19 5 28 10 23 6 -6 5 -18 -1 -32z m-18 23 c3 -5
0 -13 -6 -17 -7 -4 -9 -3 -5 4 3 5 0 13 -6 15 -9 4 -10 6 -1 6 6 1 14 -3 18
-8z m65 -31 c0 -5 -2 -10 -4 -10 -3 0 -8 5 -11 10 -3 6 -1 10 4 10 6 0 11 -4
11 -10z m7635 -2060 c38 -14 119 -62 129 -78 2 -4 -103 -7 -235 -7 -131 0
-239 1 -239 3 0 15 74 62 130 82 54 20 158 20 215 0z"/>
</g>
</svg>
